<svg xmlns="http://www.w3.org/2000/svg" viewBox="0 0 694 598">
  <g id="Layer_2" data-name="Layer 2">
    <g id="Layer_1-2" data-name="Layer 1">
      <g>
        <rect width="694" height="598" fill="none"/>
        <g>
          <ellipse id="Floor" cx="347" cy="428.18" rx="271.54" ry="150.35" fill="#e6e6e6" opacity="0.5"/>
          <g id="Desk">
            <g id="Table">
              <g>
                <path d="M443.35,336.14V470.5a3,3,0,0,1-1.36,2.34l-2.88,1.67a3,3,0,0,1-2.71,0l-2.88-1.67a3,3,0,0,1-1.36-2.34V336.14c0-.86.61-1.21,1.36-.78L436.4,337a3,3,0,0,0,2.71,0l2.88-1.66C442.74,334.93,443.35,335.28,443.35,336.14Z" fill="#37474f"/>
                <path d="M436.4,474.51l-2.88-1.67a3,3,0,0,1-1.36-2.34V336.14c0-.86.61-1.21,1.36-.78L436.4,337a3,3,0,0,1,1.35,2.35V473.73C437.75,474.59,437.15,474.94,436.4,474.51Z" fill="#455a64"/>
              </g>
              <g>
                <path d="M566.28,265.12V399.48a3,3,0,0,1-1.35,2.35L562,403.49a3,3,0,0,1-2.71,0l-2.88-1.66a3,3,0,0,1-1.36-2.35V265.12c0-.86.61-1.21,1.36-.78l2.88,1.67a3,3,0,0,0,2.71,0l2.89-1.67C565.67,263.91,566.28,264.26,566.28,265.12Z" fill="#37474f"/>
                <path d="M559.33,403.49l-2.88-1.66a3,3,0,0,1-1.36-2.35V265.12c0-.86.61-1.21,1.36-.78l2.88,1.67a3,3,0,0,1,1.36,2.34V402.71C560.69,403.57,560.08,403.92,559.33,403.49Z" fill="#455a64"/>
              </g>
              <g>
                <path d="M277.79,240.6V375a3,3,0,0,1-1.36,2.35L273.55,379a3,3,0,0,1-2.71,0L268,377.31A3,3,0,0,1,266.6,375V240.6c0-.86.61-1.21,1.36-.78l2.88,1.67a3,3,0,0,0,2.71,0l2.88-1.67C277.18,239.39,277.79,239.74,277.79,240.6Z" fill="#37474f"/>
                <path d="M270.84,379,268,377.31A3,3,0,0,1,266.6,375V240.6c0-.86.61-1.21,1.36-.78l2.88,1.67a3,3,0,0,1,1.35,2.34V378.19C272.19,379.05,271.59,379.4,270.84,379Z" fill="#455a64"/>
              </g>
              <g>
                <g>
                  <path d="M593,274.68v-1a5.44,5.44,0,0,0-2.47-4.28l-216.79-125a5.49,5.49,0,0,0-4.93,0l-133.37,77a5.44,5.44,0,0,0-2.46,4.27v1a5.46,5.46,0,0,0,2.46,4.27L452.26,356a5.44,5.44,0,0,0,4.94,0l133.36-77A5.47,5.47,0,0,0,593,274.68Z" fill="#27debf"/>
                  <path d="M593,274.68v-1a5.44,5.44,0,0,0-2.47-4.28l-216.79-125a5.49,5.49,0,0,0-4.93,0l-133.37,77a5.44,5.44,0,0,0-2.46,4.27v1a5.46,5.46,0,0,0,2.46,4.27L452.26,356a5.44,5.44,0,0,0,4.94,0l133.36-77A5.47,5.47,0,0,0,593,274.68Z" fill="#37474f"/>
                </g>
                <g>
                  <path d="M454.73,349.89v6.69a5.21,5.21,0,0,0,2.47-.59l133.36-77a5.46,5.46,0,0,0,2.47-4.27v-1a5.44,5.44,0,0,0-2-3.95c.9.76.75,1.82-.45,2.53l-133.36,77A5,5,0,0,1,454.73,349.89Z" fill="#27debf"/>
                  <path d="M454.73,349.89v6.69a5.21,5.21,0,0,0,2.47-.59l133.36-77a5.46,5.46,0,0,0,2.47-4.27v-1a5.44,5.44,0,0,0-2-3.95c.9.76.75,1.82-.45,2.53l-133.36,77A5,5,0,0,1,454.73,349.89Z" fill="#455a64"/>
                </g>
                <g>
                  <path d="M590.56,272.27l-133.36,77a5.51,5.51,0,0,1-4.94,0l-216.79-125c-1.36-.79-1.36-2.07,0-2.85l133.37-77a5.49,5.49,0,0,1,4.93,0l216.79,125C591.93,270.21,591.93,271.49,590.56,272.27Z" fill="#27debf"/>
                  <path d="M590.56,272.27l-133.36,77a5.51,5.51,0,0,1-4.94,0l-216.79-125c-1.36-.79-1.36-2.07,0-2.85l133.37-77a5.49,5.49,0,0,1,4.93,0l216.79,125C591.93,270.21,591.93,271.49,590.56,272.27Z" fill="#657c8f"/>
                </g>
              </g>
            </g>
            <g id="Keyboard">
              <path id="Shadow" d="M438.35,270.59l-31.6,18.3a3.94,3.94,0,0,1-3.54,0l-93.35-53.82a1.08,1.08,0,0,1,0-2l31.59-18.29a3.93,3.93,0,0,1,3.55,0l93.34,53.83A1.08,1.08,0,0,1,438.35,270.59Z" opacity="0.15"/>
              <g id="Keyboard-2" data-name="Keyboard">
                <g>
                  <path d="M311.77,229.78a1.25,1.25,0,0,1,.74-1l29.68-17.14a3.94,3.94,0,0,1,3.54,0L436.31,264a1.26,1.26,0,0,1,.73,1v3.11a1.23,1.23,0,0,1-.73,1L406.64,286.3a3.93,3.93,0,0,1-3.55,0L312.51,234a1.25,1.25,0,0,1-.74-1Z" fill="#263238"/>
                  <path d="M406.64,283.1l29.67-17.05a1.08,1.08,0,0,0,0-2.05l-90.58-52.38a3.94,3.94,0,0,0-3.54,0l-29.68,17.14a1.08,1.08,0,0,0,0,2l90.58,52.3A3.93,3.93,0,0,0,406.64,283.1Z" fill="#37474f"/>
                  <path d="M405,283.52v3.19a3.7,3.7,0,0,0,1.66-.41l29.66-17.14a1.25,1.25,0,0,0,.74-1V265a1.25,1.25,0,0,1-.74,1l-29.66,17.07A3.58,3.58,0,0,1,405,283.52Z" fill="#263238"/>
                </g>
                <path d="M317.27,230s0,0,0,0l2.94-1.7,4,2.3-2.95,1.76-4-2.3Zm4.6-2.66a.05.05,0,0,1,0,0l2.94-1.69,3.13,1.81-3,1.75-3.13-1.81Zm1,5.87s0,0,0,0l2.94-1.7,3.13,1.81-3,1.75-3.13-1.81Zm3.63-8.52s0,0,0,0l2.94-1.7,5.05,2.92-3,1.76-5.06-2.92Zm.11,5.37s0,0,0,0l2.94-1.7,2.49,1.43-3,1.76-2.48-1.44Zm1,5.87s0,0,0,0l2.94-1.7,3.13,1.81-3,1.75L327.56,236Zm3.1-3.52a.05.05,0,0,1,0,0l2.94-1.69,2.48,1.43-2.95,1.76-2.49-1.44Zm.42-10.38a.05.05,0,0,1,0,0l2.94-1.69,4,2.3-3,1.75-4-2.3Zm1.19,16.62a0,0,0,0,1,0,0l2.94-1.7L357.84,250l-3,1.75-22.61-13.06Zm.85-10.13a.05.05,0,0,1,0,0l2.94-1.69,2.48,1.43L335.6,230l-2.49-1.44Zm1.61,6.24a.05.05,0,0,1,0,0l2.94-1.69,2.48,1.43-3,1.76-2.49-1.44Zm.95-15.38s0,0,0,0l2.93-1.7,2.49,1.44-3,1.75-2.48-1.43Zm1,5.87s0,0,0,0l2.93-1.7,2.49,1.44-3,1.75-2.48-1.43Zm.54,5.62a.05.05,0,0,1,0,0l2.94-1.69,2.48,1.43-3,1.76-2.48-1.44Zm1.61,6.24a.05.05,0,0,1,0,0l2.94-1.69,2.48,1.43-3,1.76-2.48-1.44Zm.95-15.38s0,0,0,0l2.93-1.7,2.49,1.44-3,1.75-2.48-1.43Zm1,5.87a0,0,0,0,1,0,0l2.93-1.7,2.49,1.44-3,1.75-2.48-1.43Zm.54,5.62s0,0,0,0l2.93-1.7,2.49,1.44-3,1.75-2.48-1.43Zm0-17.07s0,0,0,0l2.94-1.7,3.13,1.81-3,1.75-3.13-1.8Zm1.61,23.31a.05.05,0,0,1,0,0l2.94-1.69,2.48,1.43-2.95,1.76-2.49-1.44Zm.95-15.38s0,0,0,0l2.93-1.7,2.49,1.44-3,1.75-2.48-1.43Zm1,5.87a.07.07,0,0,1,0,0l2.94-1.7,2.49,1.44-3,1.75L344.78,230Zm.55,5.62s0,0,0,0l2.93-1.7,2.49,1.44-3,1.75-2.48-1.43Zm1.61,6.24a.05.05,0,0,1,0,0l2.94-1.69,2.48,1.43-3,1.75-2.48-1.43Zm.8-21.91s0,0,0,0l2.94-1.7,2.49,1.44-3,1.75-2.49-1.43Zm.14,6.53a0,0,0,0,1,0,0l2.93-1.7,2.49,1.44-3,1.75-2.48-1.43Zm1,5.87a.07.07,0,0,1,0,0l2.94-1.7,2.49,1.44-3,1.75-2.48-1.43Zm.54,5.62a0,0,0,0,1,0,0l2.93-1.7,2.49,1.44-3,1.75L349.39,238Zm1.61,6.24s0,0,0,0l2.93-1.7,2.49,1.44-3,1.75L351,244.19Zm.81-21.91s0,0,0,0l2.94-1.7,2.48,1.44-2.95,1.75-2.49-1.43Zm.14,6.52a0,0,0,0,1,0,0l2.94-1.7,2.49,1.44-3,1.75L352,228.81Zm1,5.87a0,0,0,0,1,0,0l2.94-1.7,2.49,1.44-3,1.75-2.48-1.43Zm.54,5.63a.07.07,0,0,1,0,0l2.94-1.7L358.9,240l-3,1.75-2.48-1.43Zm1.62,6.24s0,0,0,0l2.93-1.7,2.49,1.44-3,1.75-2.48-1.43Zm.8-21.92s0,0,0,0l2.94-1.7,2.48,1.44-2.95,1.75-2.49-1.43Zm.14,6.53s0,0,0,0L359,229.4l2.49,1.44-3,1.75L356,231.16Zm.45,21.51a.07.07,0,0,1,0,0l2.94-1.7,3.13,1.81-3,1.75-3.12-1.8ZM357,237a0,0,0,0,1,0,0l2.94-1.7,2.49,1.44-3,1.75L357,237Zm.54,5.63s0,0,0,0l2.94-1.7,2.49,1.44-3,1.75-2.48-1.43Zm1.61,6.24a0,0,0,0,1,0,0l2.93-1.7,2.49,1.44-3,1.75-2.48-1.43Zm.81-21.92s0,0,0,0l2.94-1.7,2.48,1.44-2.95,1.75L359.94,227Zm.14,6.53s0,0,0,0l2.94-1.69,2.49,1.43-3,1.76-2.48-1.44Zm1,5.87a.05.05,0,0,1,0,0l2.94-1.69,2.49,1.43-3,1.76-2.48-1.44Zm.12,16a0,0,0,0,1,0,0l2.93-1.7,3.13,1.81-2.95,1.75-3.13-1.8Zm.42-10.38a.07.07,0,0,1,0,0l2.94-1.7,2.49,1.44-3,1.75L361.6,245Zm1.61,6.24a0,0,0,0,1,0,0l2.93-1.7,2.49,1.44-3,1.75-2.48-1.43Zm.95-15.39a.05.05,0,0,1,0,0l2.94-1.69,2.49,1.43-3,1.76-2.48-1.44Zm1,5.87a.05.05,0,0,1,0,0l2.94-1.69,2.48,1.43-2.95,1.76-2.49-1.44Zm.54,5.63s0,0,0,0l2.94-1.7,2.49,1.44-3,1.75-2.48-1.43Zm.12-17s0,0,0,0l2.94-1.7,2.48,1.44-3,1.75-2.48-1.43Zm.11,27.75s0,0,0,0l2.93-1.7,3.13,1.81-3,1.75-3.13-1.8Zm1.38-4.51a.07.07,0,0,1,0,0l2.94-1.7,2.49,1.44-3,1.75-2.48-1.43Zm1-15.39a.07.07,0,0,1,0,0l2.94-1.69,2.48,1.43-3,1.76-2.48-1.44Zm1,5.87a.05.05,0,0,1,0,0l2.94-1.69,2.49,1.43-3,1.76-2.49-1.44Zm.54,5.62s0,0,0,0l2.94-1.7,2.48,1.44-2.95,1.75-2.48-1.43Zm.12-17s0,0,0,0l2.93-1.7,2.49,1.44-3,1.75-2.48-1.43Zm.75,28.12s0,0,0,0l2.94-1.7,4,2.3-3,1.76-4-2.3Zm.74-4.88a.07.07,0,0,1,0,0l2.94-1.7,7.84,4.53-3,1.75-7.83-4.52Zm1-15.39a.05.05,0,0,1,0,0l2.94-1.69,2.48,1.43-3,1.76-2.49-1.44Zm1,5.87a.05.05,0,0,1,0,0l2.94-1.69,2.48,1.43-2.95,1.76-2.49-1.44Zm.54,5.62s0,0,0,0l2.94-1.7,2.48,1.44-2.95,1.75-2.48-1.43Zm.12-17s0,0,0,0l2.93-1.7,2.49,1.44-3,1.75-2.48-1.43Zm2.44,7.85a.05.05,0,0,1,0,0l2.94-1.69,2.48,1.43-3,1.76-2.48-1.44Zm.66,21.63a.07.07,0,0,1,0,0l2.94-1.7,2.49,1.44-3,1.75L377,264.53Zm.31-15.76a.05.05,0,0,1,0,0l2.94-1.69,2.48,1.43-2.95,1.75-2.49-1.43Zm.54,5.62s0,0,0,0l2.94-1.7L383.1,254a1.58,1.58,0,0,0,.72.15,1.61,1.61,0,0,0,.75-.16l3.85-2.23,2.92,1.69-7.55,4.41-5.92-3.42Zm.12-17s0,0,0,0l2.93-1.7,2.49,1.44-3,1.75L378,237.4Zm2.44,7.86a.05.05,0,0,1,0,0l2.93-1.69,2.49,1.43-3,1.76-2.48-1.44Zm.66,21.63a.07.07,0,0,1,0,0l2.94-1.7,2.49,1.44-3,1.75-2.48-1.43Zm.31-15.76a.05.05,0,0,1,0,0l2.94-1.7,2.48,1.44-3,1.76-2.48-1.44Zm2.42-10.35a0,0,0,0,1,0,0l2.93-1.7,2.49,1.44-3,1.75-2.48-1.43Zm.68,6.83s0,0,0,0l2.93-1.69,2.49,1.43L387,249l-2.48-1.43Zm.66,21.63s0,0,0,0l2.94-1.7,2.49,1.44-3,1.75-2.48-1.43Zm.53-5a.05.05,0,0,1,0,0l2.94-1.69,2.49,1.43-3,1.76-2.49-1.44Zm2.2-21.1a.07.07,0,0,1,0,0l2.94-1.7,2.49,1.44-3,1.75-2.48-1.43Zm.68,6.83s0,0,0,0l2.93-1.7,4.42,2.55-3,1.76L388.57,250Zm1.52,22.12a.05.05,0,0,1,0,0l2.93-1.7,6.56,3.79-3,1.75-6.55-3.78Zm.73-15.51a.05.05,0,0,1,0,0l2.94-1.69,2.49,1.43-3,1.76-2.49-1.44Zm1.14-11.1a0,0,0,0,1,0,0l2.94-1.7,2.49,1.44-3,1.75L392,245.47Zm2.73,23.95a.05.05,0,0,1,0,0l2.93-1.69,2.49,1.44-2.95,1.75-2.49-1.43Zm.2-10.5a.05.05,0,0,1,0,0l2.94-1.69,2.48,1.43-2.95,1.76-2.49-1.44Zm.53-5s0,0,0,0l2.94-1.7,2.49,1.44-3,1.75-2.49-1.43Zm.61-6.1a0,0,0,0,1,0,0l2.94-1.7,2.49,1.44-3,1.75L396,247.82Zm2.2,29s0,0,0,0l2.93-1.7,2.49,1.44-3,1.75-2.48-1.43Zm.53-5a.05.05,0,0,1,0,0l2.93-1.69,2.49,1.43-3,1.76-2.48-1.44Zm.2-10.5s0,0,0,0l2.94-1.7,2.48,1.44-2.95,1.75L399,261.26Zm.33,5.5s0,0,0,0l2.93-1.7,2.49,1.44-3,1.75-2.48-1.43Zm.2-10.51s0,0,0,0l2.94-1.7,2.48,1.44L402,257.69l-2.49-1.43Zm1.51-5.57s0,0,0,0l2.94-1.69,2.49,1.43-3,1.76L401,250.68Zm1.29,28.44a0,0,0,0,1,0,0l7.53-4.35,2.49,1.43-7.56,4.41-2.48-1.43Zm.53-5s0,0,0,0l2.93-1.69,2.49,1.43-3,1.76-2.48-1.44Zm.54-5s0,0,0,0l2.93-1.7,2.49,1.44-3,1.75-2.48-1.43Zm.2-10.51a.05.05,0,0,1,0,0l2.94-1.69,2.48,1.44L406.05,260l-2.49-1.43Zm.32,5.5a0,0,0,0,1,0,0l2.94-1.7,2.49,1.43-3,1.76-2.48-1.43ZM405.07,253a.05.05,0,0,1,0,0l2.94-1.69,2.49,1.43-3,1.76L405.08,253Zm2.35,18.43a0,0,0,0,1,0,0l2.93-1.7,2.49,1.44-3,1.75-2.48-1.43Zm.53-5a0,0,0,0,1,0,0l2.94-1.7,2.49,1.43-3,1.76L408,266.45Zm.53-5a.07.07,0,0,1,0,0l2.94-1.7,2.49,1.44-3,1.75-2.48-1.43Zm.66-6.07a.05.05,0,0,1,0,0l2.94-1.69,2.49,1.43-3,1.76-2.49-1.44Zm2.35,18.43a.07.07,0,0,1,0,0l7.54-4.35,2.49,1.43L414,275.24l-2.48-1.43Zm.53-5a0,0,0,0,1,0,0l2.94-1.7,2.49,1.43-3,1.76L412,268.8Zm.53-5a.07.07,0,0,1,0,0l2.94-1.7,2.49,1.44-3,1.75-2.48-1.43Zm2.7-6.26s0,0,0,0l1.25-.74,2.48,1.43-1.27.79-2.48-1.43Zm1.37,8.61a.07.07,0,0,1,0,0l2.94-1.7,2.49,1.44-3,1.75-2.48-1.43Zm2.7-6.26a.05.05,0,0,1,0,0l1.24-.73,2.49,1.43-1.28.79-2.47-1.43Zm1.37,8.61s0,0,0,0l2.94-1.7,2.49,1.44-3,1.75-2.48-1.43Zm2.7-6.26a.05.05,0,0,1,0,0l1.24-.73,2.49,1.43-1.28.79-2.47-1.43Zm4.06,2.35s0,0,0,0l1.24-.73,2.49,1.43-1.28.79-2.47-1.43Z" fill="#fff" opacity="0.5"/>
              </g>
            </g>
            <g id="Device">
              <polygon id="Shadow-2" data-name="Shadow" points="511.36 274.14 539.16 258.1 400.18 177.85 372.38 193.9 511.36 274.14" opacity="0.15"/>
              <g id="Monitor">
                <g>
                  <path d="M432.66,248l-19.85-11.47c-2-1.19-3.06-2.73-3.06-4.28s0-2.76,0-2.76l18.67-10.6a4.37,4.37,0,0,0,2-3.42V191l34.66,20v24.47a4.37,4.37,0,0,1-2,3.42L447.47,248A16.37,16.37,0,0,1,432.66,248Z" fill="#e6e6e6"/>
                  <path d="M456.73,239.85v2.75l6.35-3.66a4.39,4.39,0,0,0,2-3.42V211.05l-6.6-3.81c-.14,1.68-.29,3.41-.42,5.1l4.63,2.68v19.12a4.34,4.34,0,0,1-2,3.42Z" fill="#e0e0e0"/>
                  <path d="M462.66,234.14a4.37,4.37,0,0,1-2,3.42l-13.2,7.7a16.4,16.4,0,0,1-14.82,0l-19.85-11.47c-4.09-2.36-4.1-6.19,0-8.55L426,217.53a4.37,4.37,0,0,0,2-3.42V195l34.66,20Z" fill="#f5f5f5"/>
                  <path d="M422,219.86h0l4-2.33a4.37,4.37,0,0,0,2-3.42V195l34.66,20v19.12a4.37,4.37,0,0,1-2,3.42l-3.95,2.28Z" fill="#ebebeb"/>
                  <path d="M409.74,229.51v2.76c0,1.55,1,3.09,3.07,4.28L432.66,248a14.77,14.77,0,0,0,7.07,1.75V247a14.77,14.77,0,0,1-7.07-1.75l-19.85-11.48C410.77,232.61,409.74,231.06,409.74,229.51Z" fill="#ebebeb"/>
                </g>
                <path d="M518.31,260.53a5.32,5.32,0,0,1-4.79-.08l-134-77.39a5.47,5.47,0,0,1-2.47-4.28V61.45a4.64,4.64,0,0,1,7.1-4.1l134,77.39a5.46,5.46,0,0,1,2.46,4.28V256.35A5.27,5.27,0,0,1,518.31,260.53Z" fill="#455a64"/>
                <path d="M513.52,260.44l-134-77.39a5.45,5.45,0,0,1-2.47-4.27V61.45c0-1.57,1.11-2.21,2.47-1.43l134,77.39a5.46,5.46,0,0,1,2.47,4.28V259C516,260.59,514.89,261.23,513.52,260.44Z" fill="#37474f"/>
                <path d="M513.89,260.93a4.62,4.62,0,0,0,6.74-4.29V243.45L516,246.13v13.19C516,260.76,515.08,261.41,513.89,260.93Z" fill="#e0e0e0"/>
                <path d="M516,246.13v13.19c0,1.58-1.1,2.21-2.47,1.43l-134-77.39a5.47,5.47,0,0,1-2.47-4.28V165.89Z" fill="#fff"/>
                <path d="M511.36,236.09V143.23a3.26,3.26,0,0,0-1.48-2.57L383.13,67.48c-.82-.47-1.48-.09-1.48.86V161.2a3.29,3.29,0,0,0,1.48,2.57l126.76,73.17C510.7,237.42,511.36,237,511.36,236.09Z" fill="#27debf"/>
                <path d="M511.36,236.09V143.23a3.26,3.26,0,0,0-1.48-2.57L383.13,67.48c-.82-.47-1.48-.09-1.48.86V161.2a3.29,3.29,0,0,0,1.48,2.57l126.76,73.17C510.7,237.42,511.36,237,511.36,236.09Z" fill="#657c8f"/>
                <path d="M446.5,211.05a5.13,5.13,0,0,1,2.32,4c0,1.48-1,2.08-2.32,1.34a5.11,5.11,0,0,1-2.31-4C444.19,210.91,445.22,210.31,446.5,211.05Z" fill="#455a64"/>
                <path d="M515.27,139.25a5.25,5.25,0,0,1,.73,2.44V246.13l4.63-2.68V139a5.14,5.14,0,0,0-.73-2.44Z" fill="#263238"/>
              </g>
            </g>
            <g id="Window">
              <g id="Window-2" data-name="Window">
                <path d="M398.94,37.23a1.43,1.43,0,0,1,0-.22s0,0,0,0a1.6,1.6,0,0,1,.05-.21,1.17,1.17,0,0,1,.14-.3.5.5,0,0,1,.08-.12l.07-.09a.57.57,0,0,1,.16-.15v0a1.32,1.32,0,0,1,.2-.12,1.72,1.72,0,0,1,1.59.21l156.43,90.27a5.22,5.22,0,0,1,2.37,4.1V244.28a1.6,1.6,0,0,1-.85,1.42l-.1.07-.13.07a.68.68,0,0,1-.2.07,1.54,1.54,0,0,1-.3,0,1.58,1.58,0,0,1-.79-.22l-.06,0h0l-2.26-1.3-154.11-89a5.22,5.22,0,0,1-2.36-4.09V37.52C398.93,37.42,398.94,37.32,398.94,37.23Z" fill="#455a64"/>
                <g>
                  <path d="M399.7,36a1.72,1.72,0,0,1,1.59.21l156.43,90.27a5.22,5.22,0,0,1,2.37,4.1v7.72l3-1.77v-7.67a5.22,5.22,0,0,0-2.36-4.08L404.31,34.45a1.64,1.64,0,0,0-1.71-.14C402.17,34.57,400.21,35.69,399.7,36Z" fill="#263238" opacity="0.9"/>
                  <path d="M398.93,37.51c0-1.5,1.06-2.1,2.36-1.35l156.44,90.27a5.25,5.25,0,0,1,2.36,4.1v7.73l-161.16-93Z" fill="#37474f"/>
                </g>
                <g>
                  <path d="M554.76,128.07a3.5,3.5,0,0,1,1.33,2.82c0,1.14-.59,1.71-1.33,1.29a3.52,3.52,0,0,1-1.34-2.83C553.42,128.22,554,127.64,554.76,128.07Z" fill="#455a64"/>
                  <path d="M550,125.29a3.5,3.5,0,0,1,1.34,2.82c0,1.14-.6,1.71-1.34,1.29a3.55,3.55,0,0,1-1.33-2.83C548.62,125.44,549.22,124.86,550,125.29Z" fill="#455a64"/>
                  <path d="M545.15,122.51a3.53,3.53,0,0,1,1.33,2.82c0,1.14-.6,1.71-1.33,1.29a3.52,3.52,0,0,1-1.34-2.83C543.81,122.66,544.41,122.08,545.15,122.51Z" fill="#455a64"/>
                </g>
                <path d="M559.24,245.71l.12-.07,2.49-1.44a2.49,2.49,0,0,0,1.24-1.83c0-.11,0-.23,0-.34V136.48l-3,1.78v106a1.55,1.55,0,0,1-.74,1.34l-.07.06h0Z" fill="#263238" opacity="0.9"/>
              </g>
              <g id="Code">
                <g>
                  <path d="M446.85,85.55l33,19a1.81,1.81,0,0,1,.84,1.39c0,.51-.38.7-.84.43l-33-19A1.77,1.77,0,0,1,446,86C446,85.48,446.38,85.29,446.85,85.55Z" fill="#27debf"/>
                  <path d="M459.45,121.93l12.5,7.19a1.8,1.8,0,0,1,.84,1.4c0,.5-.37.69-.84.42l-12.5-7.19a1.79,1.79,0,0,1-.84-1.39C458.61,121.86,459,121.67,459.45,121.93Z" fill="#e6e6e6"/>
                  <path d="M459.45,129.21,472,136.4a1.78,1.78,0,0,1,.84,1.39c0,.51-.37.7-.84.43L459.45,131a1.81,1.81,0,0,1-.84-1.39C458.61,129.13,459,128.94,459.45,129.21Z" fill="#e6e6e6"/>
                  <path d="M483.08,106.44l66,38a1.8,1.8,0,0,1,.84,1.4c0,.5-.37.69-.84.42l-66-38a1.83,1.83,0,0,1-.84-1.4C482.24,106.36,482.62,106.17,483.08,106.44Z" fill="#27debf"/>
                  <path d="M459.72,173l20.11,11.63a1.81,1.81,0,0,1,.84,1.39c0,.51-.38.7-.84.43l-20.11-11.64a1.79,1.79,0,0,1-.84-1.39C458.88,172.88,459.26,172.69,459.72,173Z" fill="#27debf"/>
                  <path d="M483.08,186.47l66,38.07a1.79,1.79,0,0,1,.84,1.4c0,.5-.37.69-.84.42l-66-38.07a1.83,1.83,0,0,1-.84-1.4C482.24,186.39,482.62,186.2,483.08,186.47Z" fill="#27debf"/>
                  <g>
                    <path d="M446.85,92.85l16.61,9.54a1.81,1.81,0,0,1,.84,1.4c0,.5-.38.69-.84.42l-16.61-9.54a1.8,1.8,0,0,1-.84-1.4C446,92.77,446.38,92.58,446.85,92.85Z" fill="#27debf"/>
                    <path d="M446.85,92.85l16.61,9.54a1.81,1.81,0,0,1,.84,1.4c0,.5-.38.69-.84.42l-16.61-9.54a1.8,1.8,0,0,1-.84-1.4C446,92.77,446.38,92.58,446.85,92.85Z" fill="#fff" opacity="0.6"/>
                  </g>
                  <g>
                    <path d="M446.85,100.11l7.77,4.48a1.81,1.81,0,0,1,.84,1.4c0,.5-.38.69-.84.42l-7.77-4.48a1.79,1.79,0,0,1-.84-1.4C446,100,446.38,99.84,446.85,100.11Z" fill="#27debf"/>
                    <path d="M446.85,100.11l7.77,4.48a1.81,1.81,0,0,1,.84,1.4c0,.5-.38.69-.84.42l-7.77-4.48a1.79,1.79,0,0,1-.84-1.4C446,100,446.38,99.84,446.85,100.11Z" fill="#fff" opacity="0.6"/>
                  </g>
                  <g>
                    <path d="M446.85,114.66l7.77,4.48a1.81,1.81,0,0,1,.84,1.4c0,.5-.38.69-.84.42l-7.77-4.48a1.78,1.78,0,0,1-.84-1.39C446,114.58,446.38,114.39,446.85,114.66Z" fill="#27debf"/>
                    <path d="M446.85,114.66l7.77,4.48a1.81,1.81,0,0,1,.84,1.4c0,.5-.38.69-.84.42l-7.77-4.48a1.78,1.78,0,0,1-.84-1.39C446,114.58,446.38,114.39,446.85,114.66Z" fill="#fff" opacity="0.6"/>
                  </g>
                  <g>
                    <path d="M446.85,121.94l7.77,4.48a1.81,1.81,0,0,1,.84,1.39c0,.5-.38.7-.84.43l-7.77-4.48a1.8,1.8,0,0,1-.84-1.4C446,121.86,446.38,121.67,446.85,121.94Z" fill="#27debf"/>
                    <path d="M446.85,121.94l7.77,4.48a1.81,1.81,0,0,1,.84,1.39c0,.5-.38.7-.84.43l-7.77-4.48a1.8,1.8,0,0,1-.84-1.4C446,121.86,446.38,121.67,446.85,121.94Z" fill="#fff" opacity="0.6"/>
                  </g>
                  <g>
                    <path d="M466.72,104.27l10,5.77a1.81,1.81,0,0,1,.84,1.4c0,.5-.38.69-.84.42l-10-5.77a1.78,1.78,0,0,1-.84-1.39C465.88,104.19,466.25,104,466.72,104.27Z" fill="#27debf"/>
                    <path d="M466.72,104.27l10,5.77a1.81,1.81,0,0,1,.84,1.4c0,.5-.38.69-.84.42l-10-5.77a1.78,1.78,0,0,1-.84-1.39C465.88,104.19,466.25,104,466.72,104.27Z" fill="#fff" opacity="0.6"/>
                  </g>
                  <path d="M482.12,156.87l67,38.57a1.78,1.78,0,0,1,.84,1.39c0,.51-.37.7-.84.43l-67-38.57a1.81,1.81,0,0,1-.84-1.4C481.28,156.79,481.66,156.6,482.12,156.87Z" fill="#fff"/>
                  <path d="M539.15,182.38l10,5.77a1.79,1.79,0,0,1,.84,1.4c0,.5-.37.69-.84.42l-10-5.77a1.81,1.81,0,0,1-.84-1.39C538.31,182.3,538.69,182.11,539.15,182.38Z" fill="#fff"/>
                  <path d="M468.9,141.93l67,38.57a1.82,1.82,0,0,1,.83,1.4c0,.5-.37.69-.83.42l-67-38.57a1.81,1.81,0,0,1-.84-1.39C468.06,141.86,468.44,141.67,468.9,141.93Z" fill="#fff"/>
                  <g>
                    <path d="M459.45,107.38l16.61,9.55a1.78,1.78,0,0,1,.84,1.39c0,.51-.37.7-.84.43l-16.61-9.55a1.79,1.79,0,0,1-.84-1.39C458.61,107.31,459,107.12,459.45,107.38Z" fill="#27debf"/>
                    <path d="M459.45,107.38l16.61,9.55a1.78,1.78,0,0,1,.84,1.39c0,.51-.37.7-.84.43l-16.61-9.55a1.79,1.79,0,0,1-.84-1.39C458.61,107.31,459,107.12,459.45,107.38Z" fill="#fff" opacity="0.6"/>
                  </g>
                  <g>
                    <path d="M479.32,118.81l69.3,40.09a1.81,1.81,0,0,1,.84,1.39c0,.51-.38.7-.84.43l-69.3-40.09a1.79,1.79,0,0,1-.84-1.4C478.48,118.73,478.85,118.54,479.32,118.81Z" fill="#27debf"/>
                    <path d="M479.32,118.81l69.3,40.09a1.81,1.81,0,0,1,.84,1.39c0,.51-.38.7-.84.43l-69.3-40.09a1.79,1.79,0,0,1-.84-1.4C478.48,118.73,478.85,118.54,479.32,118.81Z" fill="#fff" opacity="0.6"/>
                  </g>
                  <path d="M459.45,151.19l89.66,51.7a1.8,1.8,0,0,1,.84,1.4c0,.5-.37.69-.84.42L459.45,153a1.81,1.81,0,0,1-.84-1.4C458.61,151.11,459,150.92,459.45,151.19Z" fill="#e6e6e6"/>
                  <g>
                    <path d="M446.85,143.91l7.77,4.49a1.79,1.79,0,0,1,.84,1.39c0,.5-.38.69-.84.43l-7.77-4.49a1.77,1.77,0,0,1-.84-1.39C446,143.84,446.38,143.65,446.85,143.91Z" fill="#27debf"/>
                    <path d="M446.85,143.91l7.77,4.49a1.79,1.79,0,0,1,.84,1.39c0,.5-.38.69-.84.43l-7.77-4.49a1.77,1.77,0,0,1-.84-1.39C446,143.84,446.38,143.65,446.85,143.91Z" fill="#fff" opacity="0.6"/>
                  </g>
                  <path d="M459.45,158.46l89.66,51.71a1.78,1.78,0,0,1,.84,1.39c0,.5-.37.69-.84.43l-89.66-51.71a1.81,1.81,0,0,1-.84-1.39C458.61,158.38,459,158.19,459.45,158.46Z" fill="#e6e6e6"/>
                  <g>
                    <path d="M446.85,151.19l7.77,4.48a1.81,1.81,0,0,1,.84,1.39c0,.51-.38.7-.84.43L446.85,153a1.79,1.79,0,0,1-.84-1.4C446,151.11,446.38,150.92,446.85,151.19Z" fill="#27debf"/>
                    <path d="M446.85,151.19l7.77,4.48a1.81,1.81,0,0,1,.84,1.39c0,.51-.38.7-.84.43L446.85,153a1.79,1.79,0,0,1-.84-1.4C446,151.11,446.38,150.92,446.85,151.19Z" fill="#fff" opacity="0.6"/>
                  </g>
                  <path d="M459.45,165.73l89.66,51.71a1.78,1.78,0,0,1,.84,1.39c0,.51-.37.7-.84.43l-89.66-51.71a1.79,1.79,0,0,1-.84-1.39C458.61,165.66,459,165.47,459.45,165.73Z" fill="#e6e6e6"/>
                  <g>
                    <path d="M446.85,158.46l7.77,4.48a1.83,1.83,0,0,1,.84,1.4c0,.5-.38.69-.84.42l-7.77-4.48a1.78,1.78,0,0,1-.84-1.39C446,158.38,446.38,158.19,446.85,158.46Z" fill="#27debf"/>
                    <path d="M446.85,158.46l7.77,4.48a1.83,1.83,0,0,1,.84,1.4c0,.5-.38.69-.84.42l-7.77-4.48a1.78,1.78,0,0,1-.84-1.39C446,158.38,446.38,158.19,446.85,158.46Z" fill="#fff" opacity="0.6"/>
                  </g>
                </g>
                <g opacity="0.6">
                  <path d="M434.73,78.26l4.57,2.64a1.81,1.81,0,0,1,.83,1.43V84c0,.53-.37.75-.83.48l-4.57-2.64a1.81,1.81,0,0,1-.83-1.43V78.74C433.9,78.21,434.27,78,434.73,78.26Z" fill="#fff"/>
                  <path d="M434.73,85.6l4.57,2.64a1.84,1.84,0,0,1,.83,1.44v1.68c0,.53-.37.74-.83.48l-4.57-2.64a1.84,1.84,0,0,1-.83-1.44V86.08C433.9,85.55,434.27,85.34,434.73,85.6Z" fill="#fff"/>
                  <path d="M434.73,93l4.57,2.63a1.84,1.84,0,0,1,.83,1.44V98.7c0,.53-.37.75-.83.48l-4.57-2.64a1.81,1.81,0,0,1-.83-1.43V93.43C433.9,92.9,434.27,92.68,434.73,93Z" fill="#fff"/>
                  <path d="M434.73,100.29l4.57,2.64a1.83,1.83,0,0,1,.83,1.44v1.68c0,.53-.37.74-.83.48l-4.57-2.64a1.84,1.84,0,0,1-.83-1.44v-1.68C433.9,100.24,434.27,100,434.73,100.29Z" fill="#fff"/>
                  <path d="M434.73,107.64l4.57,2.63a1.84,1.84,0,0,1,.83,1.44v1.68c0,.53-.37.74-.83.48l-4.57-2.64a1.82,1.82,0,0,1-.83-1.43v-1.68C433.9,107.59,434.27,107.37,434.73,107.64Z" fill="#fff"/>
                  <path d="M434.73,115l4.57,2.64a1.83,1.83,0,0,1,.83,1.44v1.67c0,.53-.37.75-.83.48l-4.57-2.63a1.84,1.84,0,0,1-.83-1.44v-1.68C433.9,114.93,434.27,114.72,434.73,115Z" fill="#fff"/>
                  <path d="M434.73,122.33,439.3,125a1.84,1.84,0,0,1,.83,1.44v1.68c0,.53-.37.74-.83.48l-4.57-2.64a1.83,1.83,0,0,1-.83-1.44V122.8C433.9,122.28,434.27,122.06,434.73,122.33Z" fill="#fff"/>
                  <path d="M434.73,129.67l4.57,2.64a1.82,1.82,0,0,1,.83,1.43v1.68c0,.53-.37.75-.83.48l-4.57-2.63a1.84,1.84,0,0,1-.83-1.44v-1.68C433.9,129.62,434.27,129.41,434.73,129.67Z" fill="#fff"/>
                  <path d="M434.73,137l4.57,2.64a1.84,1.84,0,0,1,.83,1.44v1.68c0,.53-.37.74-.83.48l-4.57-2.64a1.83,1.83,0,0,1-.83-1.44v-1.68C433.9,137,434.27,136.75,434.73,137Z" fill="#fff"/>
                  <path d="M434.73,144.36,439.3,147a1.81,1.81,0,0,1,.83,1.43v1.68c0,.53-.37.75-.83.48L434.73,148a1.81,1.81,0,0,1-.83-1.43v-1.68C433.9,144.31,434.27,144.09,434.73,144.36Z" fill="#fff"/>
                  <path d="M434.73,151.7l4.57,2.64a1.84,1.84,0,0,1,.83,1.44v1.68c0,.53-.37.74-.83.48l-4.57-2.64a1.84,1.84,0,0,1-.83-1.44v-1.68C433.9,151.65,434.27,151.44,434.73,151.7Z" fill="#fff"/>
                  <path d="M434.73,159.05l4.57,2.64a1.81,1.81,0,0,1,.83,1.43v1.68c0,.53-.37.75-.83.48l-4.57-2.64a1.81,1.81,0,0,1-.83-1.43v-1.68C433.9,159,434.27,158.78,434.73,159.05Z" fill="#fff"/>
                </g>
                <g>
                  <path d="M404.43,54.4l24.7,14.26a3.67,3.67,0,0,1,1.66,2.88v28.52c0,1.06-.74,1.49-1.66,1l-24.7-14.26a3.67,3.67,0,0,1-1.66-2.88V55.36C402.77,54.3,403.51,53.87,404.43,54.4Z" fill="#37474f"/>
                  <g>
                    <g>
                      <path d="M406.72,82.68,409,84a1.79,1.79,0,0,1,.84,1.4c0,.5-.37.69-.84.42l-2.27-1.31a1.83,1.83,0,0,1-.84-1.4C405.88,82.6,406.26,82.41,406.72,82.68Z" fill="#27debf"/>
                      <path d="M406.72,82.68,409,84a1.79,1.79,0,0,1,.84,1.4c0,.5-.37.69-.84.42l-2.27-1.31a1.83,1.83,0,0,1-.84-1.4C405.88,82.6,406.26,82.41,406.72,82.68Z" fill="#fff" opacity="0.6"/>
                    </g>
                    <g>
                      <path d="M406.72,59.32,409,60.63a1.79,1.79,0,0,1,.84,1.4c0,.5-.37.69-.84.42l-2.27-1.31a1.83,1.83,0,0,1-.84-1.4C405.88,59.24,406.26,59.05,406.72,59.32Z" fill="#27debf"/>
                      <path d="M406.72,59.32,409,60.63a1.79,1.79,0,0,1,.84,1.4c0,.5-.37.69-.84.42l-2.27-1.31a1.83,1.83,0,0,1-.84-1.4C405.88,59.24,406.26,59.05,406.72,59.32Z" fill="#fff" opacity="0.6"/>
                    </g>
                    <g>
                      <path d="M409.92,65.82l2.27,1.32a1.81,1.81,0,0,1,.84,1.39c0,.51-.38.7-.84.43l-2.27-1.32a1.77,1.77,0,0,1-.84-1.39C409.08,65.75,409.45,65.56,409.92,65.82Z" fill="#27debf"/>
                      <path d="M409.92,65.82l2.27,1.32a1.81,1.81,0,0,1,.84,1.39c0,.51-.38.7-.84.43l-2.27-1.32a1.77,1.77,0,0,1-.84-1.39C409.08,65.75,409.45,65.56,409.92,65.82Z" fill="#fff" opacity="0.6"/>
                    </g>
                    <g>
                      <path d="M409.92,70.48l2.27,1.32a1.81,1.81,0,0,1,.84,1.39c0,.51-.38.7-.84.43l-2.27-1.32a1.77,1.77,0,0,1-.84-1.39C409.08,70.41,409.45,70.22,409.92,70.48Z" fill="#27debf"/>
                      <path d="M409.92,70.48l2.27,1.32a1.81,1.81,0,0,1,.84,1.39c0,.51-.38.7-.84.43l-2.27-1.32a1.77,1.77,0,0,1-.84-1.39C409.08,70.41,409.45,70.22,409.92,70.48Z" fill="#fff" opacity="0.6"/>
                    </g>
                    <g>
                      <path d="M406.72,73.33,409,74.65a1.77,1.77,0,0,1,.84,1.39c0,.5-.37.69-.84.42l-2.27-1.31a1.81,1.81,0,0,1-.84-1.4C405.88,73.25,406.26,73.06,406.72,73.33Z" fill="#27debf"/>
                      <path d="M406.72,73.33,409,74.65a1.77,1.77,0,0,1,.84,1.39c0,.5-.37.69-.84.42l-2.27-1.31a1.81,1.81,0,0,1-.84-1.4C405.88,73.25,406.26,73.06,406.72,73.33Z" fill="#fff" opacity="0.6"/>
                    </g>
                    <g>
                      <path d="M409.92,79.84l2.27,1.32a1.79,1.79,0,0,1,.84,1.39c0,.5-.38.69-.84.43l-2.27-1.32a1.78,1.78,0,0,1-.84-1.39C409.08,79.76,409.45,79.57,409.92,79.84Z" fill="#27debf"/>
                      <path d="M409.92,79.84l2.27,1.32a1.79,1.79,0,0,1,.84,1.39c0,.5-.38.69-.84.43l-2.27-1.32a1.78,1.78,0,0,1-.84-1.39C409.08,79.76,409.45,79.57,409.92,79.84Z" fill="#fff" opacity="0.6"/>
                    </g>
                  </g>
                  <g>
                    <g>
                      <path d="M413,62.91l13.89,8a1.83,1.83,0,0,1,.84,1.4c0,.5-.38.69-.84.42l-13.89-8a1.77,1.77,0,0,1-.84-1.39C412.11,62.84,412.48,62.65,413,62.91Z" fill="#27debf"/>
                      <path d="M413,62.91l13.89,8a1.83,1.83,0,0,1,.84,1.4c0,.5-.38.69-.84.42l-13.89-8a1.77,1.77,0,0,1-.84-1.39C412.11,62.84,412.48,62.65,413,62.91Z" fill="#fff" opacity="0.8"/>
                    </g>
                    <g>
                      <path d="M413,86.27l13.89,8a1.83,1.83,0,0,1,.84,1.4c0,.5-.38.69-.84.42l-13.89-8a1.77,1.77,0,0,1-.84-1.39C412.11,86.2,412.48,86,413,86.27Z" fill="#27debf"/>
                      <path d="M413,86.27l13.89,8a1.83,1.83,0,0,1,.84,1.4c0,.5-.38.69-.84.42l-13.89-8a1.77,1.77,0,0,1-.84-1.39C412.11,86.2,412.48,86,413,86.27Z" fill="#fff" opacity="0.8"/>
                    </g>
                    <g>
                      <path d="M416.14,69.42l10.7,6.19a1.79,1.79,0,0,1,.84,1.39c0,.5-.38.69-.84.42l-10.7-6.18a1.81,1.81,0,0,1-.84-1.39C415.3,69.34,415.68,69.15,416.14,69.42Z" fill="#27debf"/>
                      <path d="M416.14,69.42l10.7,6.19a1.79,1.79,0,0,1,.84,1.39c0,.5-.38.69-.84.42l-10.7-6.18a1.81,1.81,0,0,1-.84-1.39C415.3,69.34,415.68,69.15,416.14,69.42Z" fill="#fff" opacity="0.8"/>
                    </g>
                    <g>
                      <path d="M416.14,74.09l10.7,6.19a1.81,1.81,0,0,1,.84,1.39c0,.5-.38.69-.84.43l-10.7-6.19a1.81,1.81,0,0,1-.84-1.39C415.3,74,415.68,73.83,416.14,74.09Z" fill="#27debf"/>
                      <path d="M416.14,74.09l10.7,6.19a1.81,1.81,0,0,1,.84,1.39c0,.5-.38.69-.84.43l-10.7-6.19a1.81,1.81,0,0,1-.84-1.39C415.3,74,415.68,73.83,416.14,74.09Z" fill="#fff" opacity="0.8"/>
                    </g>
                    <g>
                      <path d="M413,76.93l13.89,8a1.81,1.81,0,0,1,.84,1.39c0,.51-.38.7-.84.43l-13.89-8a1.78,1.78,0,0,1-.84-1.39C412.11,76.85,412.48,76.66,413,76.93Z" fill="#27debf"/>
                      <path d="M413,76.93l13.89,8a1.81,1.81,0,0,1,.84,1.39c0,.51-.38.7-.84.43l-13.89-8a1.78,1.78,0,0,1-.84-1.39C412.11,76.85,412.48,76.66,413,76.93Z" fill="#fff" opacity="0.8"/>
                    </g>
                    <g>
                      <path d="M416.14,83.44l10.7,6.18a1.81,1.81,0,0,1,.84,1.4c0,.5-.38.69-.84.42l-10.7-6.18a1.81,1.81,0,0,1-.84-1.4C415.3,83.36,415.68,83.17,416.14,83.44Z" fill="#27debf"/>
                      <path d="M416.14,83.44l10.7,6.18a1.81,1.81,0,0,1,.84,1.4c0,.5-.38.69-.84.42l-10.7-6.18a1.81,1.81,0,0,1-.84-1.4C415.3,83.36,415.68,83.17,416.14,83.44Z" fill="#fff" opacity="0.8"/>
                    </g>
                  </g>
                </g>
                <g>
                  <path d="M404.43,92.13l24.7,14.26a3.65,3.65,0,0,1,1.66,2.87v56.37c0,1.06-.74,1.49-1.66,1l-24.7-14.27a3.65,3.65,0,0,1-1.66-2.87V93.08C402.77,92,403.51,91.6,404.43,92.13Z" fill="#37474f"/>
                  <g>
                    <g>
                      <path d="M406.72,97,409,98.36a1.77,1.77,0,0,1,.84,1.39c0,.5-.37.69-.84.43l-2.27-1.32a1.81,1.81,0,0,1-.84-1.39C405.88,97,406.26,96.77,406.72,97Z" fill="#27debf"/>
                      <path d="M406.72,97,409,98.36a1.77,1.77,0,0,1,.84,1.39c0,.5-.37.69-.84.43l-2.27-1.32a1.81,1.81,0,0,1-.84-1.39C405.88,97,406.26,96.77,406.72,97Z" fill="#fff" opacity="0.6"/>
                    </g>
                    <g>
                      <path d="M409.92,103.55l2.27,1.31a1.83,1.83,0,0,1,.84,1.4c0,.5-.38.69-.84.42l-2.27-1.31a1.79,1.79,0,0,1-.84-1.4C409.08,103.47,409.45,103.28,409.92,103.55Z" fill="#27debf"/>
                      <path d="M409.92,103.55l2.27,1.31a1.83,1.83,0,0,1,.84,1.4c0,.5-.38.69-.84.42l-2.27-1.31a1.79,1.79,0,0,1-.84-1.4C409.08,103.47,409.45,103.28,409.92,103.55Z" fill="#fff" opacity="0.6"/>
                    </g>
                    <g>
                      <path d="M409.92,108.21l2.27,1.31a1.83,1.83,0,0,1,.84,1.4c0,.5-.38.69-.84.42L409.92,110a1.79,1.79,0,0,1-.84-1.4C409.08,108.13,409.45,107.94,409.92,108.21Z" fill="#27debf"/>
                      <path d="M409.92,108.21l2.27,1.31a1.83,1.83,0,0,1,.84,1.4c0,.5-.38.69-.84.42L409.92,110a1.79,1.79,0,0,1-.84-1.4C409.08,108.13,409.45,107.94,409.92,108.21Z" fill="#fff" opacity="0.6"/>
                    </g>
                    <g>
                      <path d="M406.72,111.05l2.27,1.32a1.78,1.78,0,0,1,.84,1.39c0,.51-.37.7-.84.43l-2.27-1.32a1.79,1.79,0,0,1-.84-1.39C405.88,111,406.26,110.79,406.72,111.05Z" fill="#27debf"/>
                      <path d="M406.72,111.05l2.27,1.32a1.78,1.78,0,0,1,.84,1.39c0,.51-.37.7-.84.43l-2.27-1.32a1.79,1.79,0,0,1-.84-1.39C405.88,111,406.26,110.79,406.72,111.05Z" fill="#fff" opacity="0.6"/>
                    </g>
                  </g>
                  <g>
                    <g>
                      <path d="M413,100.64l13.89,8a1.81,1.81,0,0,1,.84,1.39c0,.51-.38.7-.84.43l-13.89-8a1.79,1.79,0,0,1-.84-1.4C412.11,100.56,412.48,100.37,413,100.64Z" fill="#27debf"/>
                      <path d="M413,100.64l13.89,8a1.81,1.81,0,0,1,.84,1.39c0,.51-.38.7-.84.43l-13.89-8a1.79,1.79,0,0,1-.84-1.4C412.11,100.56,412.48,100.37,413,100.64Z" fill="#fff" opacity="0.8"/>
                    </g>
                    <g>
                      <path d="M416.14,107.15l10.7,6.18a1.81,1.81,0,0,1,.84,1.39c0,.51-.38.7-.84.43L416.14,109a1.79,1.79,0,0,1-.84-1.39C415.3,107.07,415.68,106.88,416.14,107.15Z" fill="#27debf"/>
                      <path d="M416.14,107.15l10.7,6.18a1.81,1.81,0,0,1,.84,1.39c0,.51-.38.7-.84.43L416.14,109a1.79,1.79,0,0,1-.84-1.39C415.3,107.07,415.68,106.88,416.14,107.15Z" fill="#fff" opacity="0.8"/>
                    </g>
                    <g>
                      <path d="M416.14,111.82l10.7,6.18a1.81,1.81,0,0,1,.84,1.4c0,.5-.38.69-.84.42l-10.7-6.18a1.83,1.83,0,0,1-.84-1.4C415.3,111.74,415.68,111.55,416.14,111.82Z" fill="#27debf"/>
                      <path d="M416.14,111.82l10.7,6.18a1.81,1.81,0,0,1,.84,1.4c0,.5-.38.69-.84.42l-10.7-6.18a1.83,1.83,0,0,1-.84-1.4C415.3,111.74,415.68,111.55,416.14,111.82Z" fill="#fff" opacity="0.8"/>
                    </g>
                    <g>
                      <path d="M413,114.66l13.89,8a1.83,1.83,0,0,1,.84,1.4c0,.5-.38.69-.84.42l-13.89-8a1.77,1.77,0,0,1-.84-1.39C412.11,114.58,412.48,114.39,413,114.66Z" fill="#27debf"/>
                      <path d="M413,114.66l13.89,8a1.83,1.83,0,0,1,.84,1.4c0,.5-.38.69-.84.42l-13.89-8a1.77,1.77,0,0,1-.84-1.39C412.11,114.58,412.48,114.39,413,114.66Z" fill="#fff" opacity="0.8"/>
                    </g>
                    <g>
                      <path d="M409.92,117.59l2.27,1.32a1.81,1.81,0,0,1,.84,1.39c0,.5-.38.69-.84.43l-2.27-1.32a1.78,1.78,0,0,1-.84-1.39C409.08,117.52,409.45,117.32,409.92,117.59Z" fill="#27debf"/>
                      <path d="M409.92,117.59l2.27,1.32a1.81,1.81,0,0,1,.84,1.39c0,.5-.38.69-.84.43l-2.27-1.32a1.78,1.78,0,0,1-.84-1.39C409.08,117.52,409.45,117.32,409.92,117.59Z" fill="#fff" opacity="0.6"/>
                    </g>
                    <g>
                      <path d="M409.92,122.25l2.27,1.32A1.81,1.81,0,0,1,413,125c0,.5-.38.69-.84.43l-2.27-1.32a1.78,1.78,0,0,1-.84-1.39C409.08,122.18,409.45,122,409.92,122.25Z" fill="#27debf"/>
                      <path d="M409.92,122.25l2.27,1.32A1.81,1.81,0,0,1,413,125c0,.5-.38.69-.84.43l-2.27-1.32a1.78,1.78,0,0,1-.84-1.39C409.08,122.18,409.45,122,409.92,122.25Z" fill="#fff" opacity="0.6"/>
                    </g>
                    <g>
                      <path d="M416.14,121.19l10.7,6.18a1.83,1.83,0,0,1,.84,1.4c0,.5-.38.69-.84.42L416.14,123a1.81,1.81,0,0,1-.84-1.4C415.3,121.11,415.68,120.92,416.14,121.19Z" fill="#27debf"/>
                      <path d="M416.14,121.19l10.7,6.18a1.83,1.83,0,0,1,.84,1.4c0,.5-.38.69-.84.42L416.14,123a1.81,1.81,0,0,1-.84-1.4C415.3,121.11,415.68,120.92,416.14,121.19Z" fill="#fff" opacity="0.8"/>
                    </g>
                    <g>
                      <path d="M416.14,125.86l10.7,6.19a1.79,1.79,0,0,1,.84,1.39c0,.5-.38.69-.84.43l-10.7-6.19a1.81,1.81,0,0,1-.84-1.39C415.3,125.78,415.68,125.59,416.14,125.86Z" fill="#27debf"/>
                      <path d="M416.14,125.86l10.7,6.19a1.79,1.79,0,0,1,.84,1.39c0,.5-.38.69-.84.43l-10.7-6.19a1.81,1.81,0,0,1-.84-1.39C415.3,125.78,415.68,125.59,416.14,125.86Z" fill="#fff" opacity="0.8"/>
                    </g>
                    <g>
                      <path d="M406.72,134.47l2.27,1.32a1.77,1.77,0,0,1,.84,1.39c0,.5-.37.69-.84.42l-2.27-1.31a1.81,1.81,0,0,1-.84-1.39C405.88,134.39,406.26,134.2,406.72,134.47Z" fill="#27debf"/>
                      <path d="M406.72,134.47l2.27,1.32a1.77,1.77,0,0,1,.84,1.39c0,.5-.37.69-.84.42l-2.27-1.31a1.81,1.81,0,0,1-.84-1.39C405.88,134.39,406.26,134.2,406.72,134.47Z" fill="#fff" opacity="0.6"/>
                    </g>
                    <g>
                      <path d="M413,138.07l13.89,8a1.81,1.81,0,0,1,.84,1.39c0,.51-.38.7-.84.43l-13.89-8a1.78,1.78,0,0,1-.84-1.39C412.11,138,412.48,137.8,413,138.07Z" fill="#27debf"/>
                      <path d="M413,138.07l13.89,8a1.81,1.81,0,0,1,.84,1.39c0,.51-.38.7-.84.43l-13.89-8a1.78,1.78,0,0,1-.84-1.39C412.11,138,412.48,137.8,413,138.07Z" fill="#fff" opacity="0.8"/>
                    </g>
                    <g>
                      <path d="M409.92,141l2.27,1.31a1.83,1.83,0,0,1,.84,1.4c0,.5-.38.69-.84.42l-2.27-1.31a1.79,1.79,0,0,1-.84-1.4C409.08,140.93,409.45,140.74,409.92,141Z" fill="#27debf"/>
                      <path d="M409.92,141l2.27,1.31a1.83,1.83,0,0,1,.84,1.4c0,.5-.38.69-.84.42l-2.27-1.31a1.79,1.79,0,0,1-.84-1.4C409.08,140.93,409.45,140.74,409.92,141Z" fill="#fff" opacity="0.6"/>
                    </g>
                    <g>
                      <path d="M409.92,145.67l2.27,1.31a1.83,1.83,0,0,1,.84,1.4c0,.5-.38.69-.84.42l-2.27-1.31a1.79,1.79,0,0,1-.84-1.4C409.08,145.59,409.45,145.4,409.92,145.67Z" fill="#27debf"/>
                      <path d="M409.92,145.67l2.27,1.31a1.83,1.83,0,0,1,.84,1.4c0,.5-.38.69-.84.42l-2.27-1.31a1.79,1.79,0,0,1-.84-1.4C409.08,145.59,409.45,145.4,409.92,145.67Z" fill="#fff" opacity="0.6"/>
                    </g>
                    <g>
                      <path d="M416.14,144.61l10.7,6.18a1.81,1.81,0,0,1,.84,1.39c0,.51-.38.7-.84.43l-10.7-6.19a1.79,1.79,0,0,1-.84-1.39C415.3,144.53,415.68,144.34,416.14,144.61Z" fill="#27debf"/>
                      <path d="M416.14,144.61l10.7,6.18a1.81,1.81,0,0,1,.84,1.39c0,.51-.38.7-.84.43l-10.7-6.19a1.79,1.79,0,0,1-.84-1.39C415.3,144.53,415.68,144.34,416.14,144.61Z" fill="#fff" opacity="0.8"/>
                    </g>
                    <g>
                      <path d="M416.14,149.28l10.7,6.18a1.81,1.81,0,0,1,.84,1.4c0,.5-.38.69-.84.42l-10.7-6.18a1.83,1.83,0,0,1-.84-1.4C415.3,149.2,415.68,149,416.14,149.28Z" fill="#27debf"/>
                      <path d="M416.14,149.28l10.7,6.18a1.81,1.81,0,0,1,.84,1.4c0,.5-.38.69-.84.42l-10.7-6.18a1.83,1.83,0,0,1-.84-1.4C415.3,149.2,415.68,149,416.14,149.28Z" fill="#fff" opacity="0.8"/>
                    </g>
                    <g>
                      <path d="M409.92,126.89l2.27,1.31a1.83,1.83,0,0,1,.84,1.4c0,.5-.38.69-.84.42l-2.27-1.31a1.8,1.8,0,0,1-.84-1.4C409.08,126.81,409.45,126.62,409.92,126.89Z" fill="#27debf"/>
                      <path d="M409.92,126.89l2.27,1.31a1.83,1.83,0,0,1,.84,1.4c0,.5-.38.69-.84.42l-2.27-1.31a1.8,1.8,0,0,1-.84-1.4C409.08,126.81,409.45,126.62,409.92,126.89Z" fill="#fff" opacity="0.6"/>
                    </g>
                    <g>
                      <path d="M406.72,129.73l2.27,1.32a1.78,1.78,0,0,1,.84,1.39c0,.51-.37.7-.84.43l-2.27-1.32a1.81,1.81,0,0,1-.84-1.39C405.88,129.66,406.26,129.47,406.72,129.73Z" fill="#27debf"/>
                      <path d="M406.72,129.73l2.27,1.32a1.78,1.78,0,0,1,.84,1.39c0,.51-.37.7-.84.43l-2.27-1.32a1.81,1.81,0,0,1-.84-1.39C405.88,129.66,406.26,129.47,406.72,129.73Z" fill="#fff" opacity="0.6"/>
                    </g>
                    <g>
                      <path d="M416.14,130.5l10.7,6.18a1.81,1.81,0,0,1,.84,1.4c0,.5-.38.69-.84.42l-10.7-6.18a1.83,1.83,0,0,1-.84-1.4C415.3,130.42,415.68,130.23,416.14,130.5Z" fill="#27debf"/>
                      <path d="M416.14,130.5l10.7,6.18a1.81,1.81,0,0,1,.84,1.4c0,.5-.38.69-.84.42l-10.7-6.18a1.83,1.83,0,0,1-.84-1.4C415.3,130.42,415.68,130.23,416.14,130.5Z" fill="#fff" opacity="0.8"/>
                    </g>
                    <g>
                      <path d="M413,133.33l13.89,8a1.83,1.83,0,0,1,.84,1.4c0,.5-.38.69-.84.42l-13.89-8a1.77,1.77,0,0,1-.84-1.39C412.11,133.26,412.48,133.07,413,133.33Z" fill="#27debf"/>
                      <path d="M413,133.33l13.89,8a1.83,1.83,0,0,1,.84,1.4c0,.5-.38.69-.84.42l-13.89-8a1.77,1.77,0,0,1-.84-1.39C412.11,133.26,412.48,133.07,413,133.33Z" fill="#fff" opacity="0.8"/>
                    </g>
                    <g>
                      <path d="M406.72,148.58l2.27,1.31a1.8,1.8,0,0,1,.84,1.4c0,.5-.37.69-.84.42l-2.27-1.31a1.81,1.81,0,0,1-.84-1.4C405.88,148.5,406.26,148.31,406.72,148.58Z" fill="#27debf"/>
                      <path d="M406.72,148.58l2.27,1.31a1.8,1.8,0,0,1,.84,1.4c0,.5-.37.69-.84.42l-2.27-1.31a1.81,1.81,0,0,1-.84-1.4C405.88,148.5,406.26,148.31,406.72,148.58Z" fill="#fff" opacity="0.6"/>
                    </g>
                    <g>
                      <path d="M413,152.18l13.89,8a1.81,1.81,0,0,1,.84,1.39c0,.51-.38.7-.84.43L413,154a1.79,1.79,0,0,1-.84-1.4C412.11,152.1,412.48,151.91,413,152.18Z" fill="#27debf"/>
                      <path d="M413,152.18l13.89,8a1.81,1.81,0,0,1,.84,1.39c0,.51-.38.7-.84.43L413,154a1.79,1.79,0,0,1-.84-1.4C412.11,152.1,412.48,151.91,413,152.18Z" fill="#fff" opacity="0.8"/>
                    </g>
                  </g>
                </g>
              </g>
            </g>
            <g id="Window-3" data-name="Window">
              <g>
                <g opacity="0.8">
                  <path d="M541.88,171.36v92.49a4.24,4.24,0,0,0,1.92,3.33l53.14,30.66a1.16,1.16,0,0,0,.64.18l.24,0,.17-.05.1-.06.11-.08a.48.48,0,0,0,.11-.09,1.61,1.61,0,0,0,.35-.5,2.38,2.38,0,0,0,.2-1v-92a4.24,4.24,0,0,0-1.92-3.33L543.8,170.25a1.38,1.38,0,0,0-1.29-.16.51.51,0,0,0-.16.09h0a.74.74,0,0,0-.12.13.2.2,0,0,0-.06.07.33.33,0,0,0-.06.1.8.8,0,0,0-.11.25.69.69,0,0,0-.05.17,0,0,0,0,0,0,0l0,.18C541.89,171.2,541.88,171.28,541.88,171.36Z" fill="#455a64"/>
                </g>
                <g>
                  <path d="M542.51,170.09a1.38,1.38,0,0,1,1.29.16l53.14,30.63a4.24,4.24,0,0,1,1.92,3.33v6.28l3.07-1.77v-6.24a4.24,4.24,0,0,0-1.92-3.32l-53.14-30.63a1.34,1.34,0,0,0-1.4-.11C545.13,168.63,542.92,169.87,542.51,170.09Z" fill="#263238" opacity="0.9"/>
                  <path d="M541.89,171.35c0-1.22.86-1.71,1.91-1.1l53.14,30.63a4.24,4.24,0,0,1,1.92,3.33v6.28l-57-32.84Z" fill="#37474f"/>
                  <path d="M601.93,208.72v-6.24a3.94,3.94,0,0,0-.59-1.92l-3.05,1.74a3.94,3.94,0,0,1,.57,1.91v6.28Z" opacity="0.15"/>
                </g>
                <g>
                  <path d="M596.07,203.46a2.87,2.87,0,0,1,1.08,2.3c0,.92-.48,1.39-1.08,1a2.84,2.84,0,0,1-1.09-2.29C595,203.58,595.47,203.12,596.07,203.46Z" fill="#455a64"/>
                  <path d="M592.16,201.2a2.88,2.88,0,0,1,1.09,2.3c0,.92-.49,1.39-1.09,1.05a2.87,2.87,0,0,1-1.08-2.3C591.08,201.33,591.56,200.86,592.16,201.2Z" fill="#455a64"/>
                  <path d="M588.26,198.94a2.9,2.9,0,0,1,1.08,2.3c0,.92-.49,1.39-1.08,1a2.88,2.88,0,0,1-1.09-2.3C587.17,199.07,587.66,198.6,588.26,198.94Z" fill="#455a64"/>
                </g>
                <g opacity="0.9">
                  <path d="M598.16,297.85l.24-.14c.17-.11.38-.22.59-.33h0a3.3,3.3,0,0,1,.32-.18l0,0,.51-.29,1-.57a2.21,2.21,0,0,1,.24-.13,1,1,0,0,0,.33-.27,1.4,1.4,0,0,0,.26-.39,2.5,2.5,0,0,0,.22-1V208.72l-3.07,1.77v85.74a2.84,2.84,0,0,1-.2,1,1.61,1.61,0,0,1-.35.5.24.24,0,0,1-.11.09A.1.1,0,0,1,598.16,297.85Z" fill="#37474f"/>
                </g>
              </g>
              <g>
                <g>
                  <path d="M546.3,188.26a.3.3,0,0,1,.09-.24l1.39-1.27a.07.07,0,0,1,.06,0l0,0a.25.25,0,0,1,.11.13.45.45,0,0,1,0,.19v1a.87.87,0,0,1,0,.27.44.44,0,0,1-.1.15l-.73.66.73,1.51a1.3,1.3,0,0,1,.1.27,1.12,1.12,0,0,1,0,.29v1a.18.18,0,0,1,0,.14.08.08,0,0,1-.11,0l0,0a.35.35,0,0,1-.06-.09l-1.39-2.86a.8.8,0,0,1-.09-.36Z" fill="#27debf"/>
                  <path d="M551.35,186.93a.37.37,0,0,1,.1-.16.18.18,0,0,1,.21,0l.51.3a.27.27,0,0,1,.11.14.41.41,0,0,1,.05.19s0,.06,0,.09L550,194.86a.39.39,0,0,1-.1.16c-.05,0-.12,0-.21,0l-.5-.28a.33.33,0,0,1-.11-.14.43.43,0,0,1,0-.19.28.28,0,0,1,0-.09Z" fill="#27debf"/>
                  <path d="M555,194a.27.27,0,0,1-.1.24l-1.38,1.27a.07.07,0,0,1-.06,0s0,0,0,0a.24.24,0,0,1-.11-.13.45.45,0,0,1-.05-.19v-1a.87.87,0,0,1,0-.27.44.44,0,0,1,.1-.15l.73-.66-.73-1.52a1.06,1.06,0,0,1-.1-.26,1.12,1.12,0,0,1,0-.29v-1a.18.18,0,0,1,.05-.14.08.08,0,0,1,.11,0l0,0a.35.35,0,0,1,.06.09l1.38,2.86a.7.7,0,0,1,.1.36Z" fill="#27debf"/>
                  <path d="M558.85,197.78a.38.38,0,0,1,.14.16.69.69,0,0,1,0,.24v1a.3.3,0,0,1,0,.18.12.12,0,0,1-.14,0l-.65-.38a.31.31,0,0,1-.13-.16.53.53,0,0,1-.06-.24v-1.06a.22.22,0,0,1,.06-.17.09.09,0,0,1,.13,0Z" fill="#27debf"/>
                  <path d="M561,199a.27.27,0,0,1,.13.16.53.53,0,0,1,.06.24v1.05a.24.24,0,0,1-.06.18.1.1,0,0,1-.13,0l-.65-.37a.35.35,0,0,1-.13-.16.53.53,0,0,1-.06-.24v-1.06a.21.21,0,0,1,.06-.17.09.09,0,0,1,.13,0Z" fill="#27debf"/>
                  <path d="M563.21,200.29a.4.4,0,0,1,.13.17.49.49,0,0,1,.06.23v1.06a.21.21,0,0,1-.06.17.09.09,0,0,1-.13,0l-.65-.37a.41.41,0,0,1-.14-.17.64.64,0,0,1,0-.23V200.1a.25.25,0,0,1,0-.17.11.11,0,0,1,.14,0Z" fill="#27debf"/>
                </g>
                <path d="M546.88,196.64l31.93,18.44a1.46,1.46,0,0,1,.68,1.13c0,.41-.31.56-.68.34l-31.93-18.43a1.45,1.45,0,0,1-.68-1.13C546.2,196.58,546.5,196.43,546.88,196.64Z" fill="#27debf"/>
                <path d="M557.12,220.3l31.93,18.43a1.47,1.47,0,0,1,.68,1.14c0,.4-.3.56-.68.34l-31.93-18.43a1.47,1.47,0,0,1-.68-1.14C556.44,220.24,556.74,220.08,557.12,220.3Z" fill="#e6e6e6"/>
                <path d="M557.12,232.13,572.4,241a1.44,1.44,0,0,1,.69,1.13c0,.41-.31.56-.69.35l-15.28-8.83a1.47,1.47,0,0,1-.68-1.14C556.44,232.06,556.74,231.91,557.12,232.13Z" fill="#e6e6e6"/>
                <path d="M581.45,216.6l12.72,7.32a1.45,1.45,0,0,1,.68,1.13c0,.41-.3.57-.68.35l-12.72-7.32a1.45,1.45,0,0,1-.68-1.13C580.77,216.54,581.07,216.39,581.45,216.6Z" fill="#27debf"/>
                <path d="M546.88,261.69l31.93,18.44a1.46,1.46,0,0,1,.68,1.13c0,.41-.31.56-.68.34l-31.93-18.43a1.45,1.45,0,0,1-.68-1.13C546.2,261.63,546.5,261.48,546.88,261.69Z" fill="#27debf"/>
                <path d="M581.45,281.65,594.17,289a1.45,1.45,0,0,1,.68,1.13c0,.41-.3.57-.68.35l-12.72-7.32a1.45,1.45,0,0,1-.68-1.13C580.77,281.59,581.07,281.44,581.45,281.65Z" fill="#27debf"/>
                <path d="M581.45,263.94l12.72,7.32a1.45,1.45,0,0,1,.68,1.13c0,.41-.3.57-.68.35l-12.72-7.32a1.45,1.45,0,0,1-.68-1.13C580.77,263.88,581.07,263.72,581.45,263.94Z" fill="#27debf"/>
                <path d="M581.45,269.86l12.72,7.31a1.47,1.47,0,0,1,.68,1.14c0,.4-.3.56-.68.34l-12.72-7.32a1.43,1.43,0,0,1-.68-1.13C580.77,269.79,581.07,269.64,581.45,269.86Z" fill="#27debf"/>
                <path d="M570.6,257.66l7.15,4.13a1.45,1.45,0,0,1,.68,1.13c0,.41-.3.57-.68.35l-7.15-4.13a1.47,1.47,0,0,1-.68-1.13C569.92,257.6,570.23,257.44,570.6,257.66Z" fill="#27debf"/>
                <g>
                  <path d="M546.88,202.57l18.62,10.74a1.47,1.47,0,0,1,.68,1.14c0,.41-.3.56-.68.34l-18.62-10.74a1.46,1.46,0,0,1-.68-1.13C546.2,202.51,546.5,202.35,546.88,202.57Z" fill="#27debf"/>
                  <path d="M546.88,202.57l18.62,10.74a1.47,1.47,0,0,1,.68,1.14c0,.41-.3.56-.68.34l-18.62-10.74a1.46,1.46,0,0,1-.68-1.13C546.2,202.51,546.5,202.35,546.88,202.57Z" fill="#fff" opacity="0.6"/>
                </g>
                <g>
                  <path d="M546.88,208.47l6.32,3.65a1.46,1.46,0,0,1,.68,1.13c0,.41-.31.56-.68.35L546.88,210a1.45,1.45,0,0,1-.68-1.13C546.2,208.41,546.5,208.26,546.88,208.47Z" fill="#27debf"/>
                  <path d="M546.88,208.47l6.32,3.65a1.46,1.46,0,0,1,.68,1.13c0,.41-.31.56-.68.35L546.88,210a1.45,1.45,0,0,1-.68-1.13C546.2,208.41,546.5,208.26,546.88,208.47Z" fill="#fff" opacity="0.6"/>
                </g>
                <g>
                  <path d="M546.88,214.39,553.2,218a1.49,1.49,0,0,1,.68,1.13c0,.41-.31.57-.68.35l-6.32-3.64a1.47,1.47,0,0,1-.68-1.14C546.2,214.32,546.5,214.17,546.88,214.39Z" fill="#27debf"/>
                  <path d="M546.88,214.39,553.2,218a1.49,1.49,0,0,1,.68,1.13c0,.41-.31.57-.68.35l-6.32-3.64a1.47,1.47,0,0,1-.68-1.14C546.2,214.32,546.5,214.17,546.88,214.39Z" fill="#fff" opacity="0.6"/>
                </g>
                <path d="M546.88,220.3l6.32,3.64a1.49,1.49,0,0,1,.68,1.14c0,.41-.31.56-.68.34l-6.32-3.64a1.46,1.46,0,0,1-.68-1.13C546.2,220.24,546.5,220.08,546.88,220.3Z" fill="#27debf"/>
                <path d="M546.88,220.3l6.32,3.64a1.49,1.49,0,0,1,.68,1.14c0,.4-.31.56-.68.34l-6.32-3.64a1.47,1.47,0,0,1-.68-1.14C546.2,220.24,546.5,220.08,546.88,220.3Z" fill="#fff" opacity="0.6"/>
                <path d="M557.12,226.21,575.74,237a1.44,1.44,0,0,1,.69,1.13c0,.41-.31.56-.69.35l-18.62-10.75a1.45,1.45,0,0,1-.68-1.13C556.44,226.15,556.74,226,557.12,226.21Z" fill="#27debf" opacity="0.6"/>
                <path d="M578.39,238.48l8.1,4.69a1.49,1.49,0,0,1,.68,1.14c0,.41-.31.56-.68.34l-8.1-4.69a1.43,1.43,0,0,1-.68-1.13C577.71,238.42,578,238.27,578.39,238.48Z" fill="#27debf" opacity="0.6"/>
                <path d="M557.12,226.21,575.74,237a1.44,1.44,0,0,1,.69,1.13c0,.41-.31.56-.69.35l-18.62-10.75a1.45,1.45,0,0,1-.68-1.13C556.44,226.15,556.74,226,557.12,226.21Z" fill="#fff" opacity="0.6"/>
                <path d="M578.39,238.48l8.1,4.69a1.49,1.49,0,0,1,.68,1.14c0,.41-.31.56-.68.34l-8.1-4.69a1.43,1.43,0,0,1-.68-1.13C577.71,238.42,578,238.27,578.39,238.48Z" fill="#fff" opacity="0.6"/>
                <g>
                  <path d="M546.88,226.21l6.32,3.65a1.47,1.47,0,0,1,.68,1.13c0,.41-.31.56-.68.35l-6.32-3.65a1.43,1.43,0,0,1-.68-1.13C546.2,226.15,546.5,226,546.88,226.21Z" fill="#27debf"/>
                  <path d="M546.88,226.21l6.32,3.65a1.47,1.47,0,0,1,.68,1.13c0,.41-.31.56-.68.35l-6.32-3.65a1.43,1.43,0,0,1-.68-1.13C546.2,226.15,546.5,226,546.88,226.21Z" fill="#fff" opacity="0.6"/>
                </g>
                <g>
                  <path d="M568.15,214.84l8.09,4.69a1.48,1.48,0,0,1,.69,1.13c0,.41-.31.57-.69.35l-8.09-4.69a1.48,1.48,0,0,1-.69-1.13C567.46,214.78,567.77,214.62,568.15,214.84Z" fill="#27debf"/>
                  <path d="M568.15,214.84l8.09,4.69a1.48,1.48,0,0,1,.69,1.13c0,.41-.31.57-.69.35l-8.09-4.69a1.48,1.48,0,0,1-.69-1.13C567.46,214.78,567.77,214.62,568.15,214.84Z" fill="#fff" opacity="0.6"/>
                </g>
                <path d="M564.8,242.47l18.63,10.74a1.49,1.49,0,0,1,.68,1.14c0,.4-.31.56-.68.34L564.8,244a1.49,1.49,0,0,1-.68-1.14C564.12,242.41,564.43,242.25,564.8,242.47Z" fill="#fff"/>
                <path d="M575.55,254.61l18.62,10.74a1.47,1.47,0,0,1,.68,1.14c0,.41-.3.56-.68.34l-18.62-10.74a1.46,1.46,0,0,1-.68-1.13C574.87,254.55,575.17,254.39,575.55,254.61Z" fill="#fff"/>
                <path d="M586.07,254.74l8.1,4.69a1.46,1.46,0,0,1,.68,1.13c0,.41-.3.57-.68.35l-8.1-4.69a1.49,1.49,0,0,1-.68-1.13C585.39,254.68,585.7,254.52,586.07,254.74Z" fill="#fff"/>
                <path d="M586.07,278.16l8.1,4.69a1.47,1.47,0,0,1,.68,1.14c0,.41-.3.56-.68.34l-8.1-4.69a1.47,1.47,0,0,1-.68-1.13C585.39,278.1,585.7,278,586.07,278.16Z" fill="#e6e6e6"/>
                <g>
                  <path d="M557.12,214.39l18.62,10.74a1.48,1.48,0,0,1,.69,1.13c0,.41-.31.57-.69.35l-18.62-10.74a1.47,1.47,0,0,1-.68-1.14C556.44,214.32,556.74,214.17,557.12,214.39Z" fill="#27debf"/>
                  <path d="M557.12,214.39l18.62,10.74a1.48,1.48,0,0,1,.69,1.13c0,.41-.31.57-.69.35l-18.62-10.74a1.47,1.47,0,0,1-.68-1.14C556.44,214.32,556.74,214.17,557.12,214.39Z" fill="#fff" opacity="0.6"/>
                </g>
                <g>
                  <path d="M578.39,226.66l8.1,4.69a1.47,1.47,0,0,1,.68,1.13c0,.41-.31.56-.68.35l-8.1-4.69a1.47,1.47,0,0,1-.68-1.14C577.71,226.6,578,226.44,578.39,226.66Z" fill="#27debf"/>
                  <path d="M578.39,226.66l8.1,4.69a1.47,1.47,0,0,1,.68,1.13c0,.41-.31.56-.68.35l-8.1-4.69a1.47,1.47,0,0,1-.68-1.14C577.71,226.6,578,226.44,578.39,226.66Z" fill="#fff" opacity="0.6"/>
                </g>
              </g>
            </g>
            <g id="Mouse">
              <path d="M451.46,294.41,462.87,301a12.55,12.55,0,0,0,12.59-.66l18.83-13.75c3.36-2.44,3.17-6.11-.43-8.19l-5.72-3.32a15.55,15.55,0,0,0-13.23-.4l-23.24,12.6C448,289.14,447.86,292.34,451.46,294.41Z" opacity="0.15"/>
              <path d="M494.6,280.62l-13,10.18L472,298.32a8.34,8.34,0,0,1-3.06.74,8.43,8.43,0,0,1-4.56-1l-10.21-5.9h0l-.06,0A7.21,7.21,0,0,1,452,281.82l.3-.42a13.56,13.56,0,0,1,8.21-5.2l5.18-1c8.38-1.7,15.25-2.53,16.05-2l12.8,7.42A.08.08,0,0,1,494.6,280.62Z" fill="#37474f"/>
              <path d="M487.32,286.31l.73-.57-11.48-6.63L486.62,276l-1-.59-10.05,3.11-6.85-3.95-1.3.24Z" fill="#27debf"/>
              <path d="M473.09,297.71s.05,0,.06,0,0,0,0,0l9.14-6.61,12.35-8.92v-1.4a.1.1,0,0,0-.06-.1.08.08,0,0,0-.07,0c-.92-.32-6.27,1.29-12.74,3.86l-4.29,1.7a13.41,13.41,0,0,0-3.65,2.17,13.6,13.6,0,0,0-5,10.51v.23a8.34,8.34,0,0,0,3.06-.74Z" fill="#263238"/>
            </g>
          </g>
          <g id="Character">
            <g>
              <g>
                <path d="M303,412c0-.25-3.89-14.28-3.89-14.28s1.27,1.29,9.38-.86a45.48,45.48,0,0,0,8.83-3.7l2.32,10.26c2.16,3.95,9.33,2.13,17.18,1.24,1.32-.15,2.68-.37,4-.6h.08c4.24-.24,8.49,2.31,4.09,5.93s-11.68,5-18.39,6.19C318.54,417.66,304.4,420,303,412Z" fill="#ffaa83"/>
                <g>
                  <path d="M359.33,410.78a8.23,8.23,0,0,1,.58,4.32c-.15,1.56-4,6.87-10.85,10.11s-15.28,3.47-19.24,4.61-7.58,3.41-12.24,4.54-9.27,1.74-13.94-1.34c-.86-1.32-1.82-4.39-1.54-4.69C302.84,427.53,359.33,410.78,359.33,410.78Z" fill="#263238"/>
                  <path d="M320.83,404.82c3,2.08,9.23.64,15.95-.13,6.34-.72,13.48-2.95,17.79-1.45s7.91,6.56,2.08,13.06c-1.68,1.88-5.25,5.19-8.09,6.21-7.24,2.6-13.74,2.8-18.39,3.95-6.06,1.5-9.37,4.18-15,4.83-7.25.84-11.84-1-13.09-3s-2.42-17.55.69-17.22c0,0,1.31,5.05,13.15.14C321.12,409.11,321,406,320.83,404.82Z" fill="#27debf"/>
                  <path d="M320.83,404.82c3,2.08,9.23.64,15.95-.13,6.34-.72,13.48-2.95,17.79-1.45s7.91,6.56,2.08,13.06c-1.68,1.88-5.25,5.19-8.09,6.21-7.24,2.6-13.74,2.8-18.39,3.95-6.06,1.5-9.37,4.18-15,4.83-7.25.84-11.84-1-13.09-3s-2.42-17.55.69-17.22c0,0,1.31,5.05,13.15.14C321.12,409.11,321,406,320.83,404.82Z" fill="#37474f"/>
                  <path d="M340.93,413.2s-.68-6.59-5.55-8.34a2.56,2.56,0,0,0-2.68.35s4.52.66,6,8.39c0,0,.23.51,1.22.34C340.25,413.87,341,413.74,340.93,413.2Z" fill="#fafafa"/>
                  <path d="M328.54,405.73s0-.22,1.15-.44a2,2,0,0,1,1.33.15s3.64,1.57,4.32,8.46a1.22,1.22,0,0,1-1.12,1.06,1,1,0,0,1-1.3-.67S332.17,407,328.54,405.73Z" fill="#fafafa"/>
                  <path d="M324.64,405.87s.21-.42,1.06-.41c1.08,0,1.33.42,1.33.42s2.59,2.65,2.62,8.41c0,0,.1,1-1.25,1.08s-1.17-1-1.17-1S326.77,407,324.64,405.87Z" fill="#fafafa"/>
                </g>
              </g>
              <path d="M297.94,316.56c5.94,17.84,21.68,79.27,21.68,79.27s-10.24,9.21-21.36,5l-26.48-76.49Z" fill="#bc9a7e"/>
            </g>
            <g>
              <g>
                <path d="M343.7,431.86c-1.21-1.8-5.76-14.3-5.76-14.3s4.75,2.72,12.92.78c4.16-1,8-5.5,8-5.5l3.49,12c2.06,4,8.73,2.68,16.6,2,1.32-.12,2.69-.31,4.05-.51h.08c4.24-.13,8.44,2.52,3.94,6s-11.8,4.7-18.53,5.74C360.44,439.34,348.25,438.6,343.7,431.86Z" fill="#ffaa83"/>
                <g>
                  <path d="M404.77,431.48a8.82,8.82,0,0,1,.51,4.65c-.2,1.67-4.5,7.27-11.91,10.57s-16.5,3.32-20.78,4.44-8.23,3.46-13.26,4.56c-5.19,1.13-10,1.62-14.94-1.81-.88-1.45-1.83-4.76-1.52-5.08C343.69,448,404.77,431.48,404.77,431.48Z" fill="#263238"/>
                  <path d="M363.67,424a14.6,14.6,0,0,0,1.49.92,4.42,4.42,0,0,0,1.65.34,23.92,23.92,0,0,0,4,.1c3.33-.17,6.63-.67,9.94-1,6.83-.61,14.55-2.81,19.13-1.1s8.77,7.24,2.35,14.07c-1.85,2-5.68,5.3-8.6,6.53-7.62,3.18-15.52,2.59-20.55,3.7-6.55,1.44-10.17,4.23-16.2,4.78-7.81.72-12.69-1.4-14-3.52-.73-1.18.08-7.3-.9-12.05-.84-4.09-.62-6.88.85-6.69a7.45,7.45,0,0,0,1.14,1.44,5.36,5.36,0,0,0,1.73,1.37,14.24,14.24,0,0,0,2.93,1,16.82,16.82,0,0,0,5.44.74,2.64,2.64,0,0,0,1.48-.46,3.12,3.12,0,0,0,.85-1.85l.39-1.81a2.64,2.64,0,0,1,.33-.94,2.61,2.61,0,0,1,.93-.74,7.87,7.87,0,0,0,3-2.26,7,7,0,0,0,.87-2.8.72.72,0,0,1,.2-.47c.22-.17.54,0,.78.13Z" fill="#27debf"/>
                  <path d="M363.67,424a14.6,14.6,0,0,0,1.49.92,4.42,4.42,0,0,0,1.65.34,23.92,23.92,0,0,0,4,.1c3.33-.17,6.63-.67,9.94-1,6.83-.61,14.55-2.81,19.13-1.1s8.77,7.24,2.35,14.07c-1.85,2-5.68,5.3-8.6,6.53-7.62,3.18-15.52,2.59-20.55,3.7-6.55,1.44-10.17,4.23-16.2,4.78-7.81.72-12.69-1.4-14-3.52-.73-1.18.08-7.3-.9-12.05-.84-4.09-.62-6.88.85-6.69a7.45,7.45,0,0,0,1.14,1.44,5.36,5.36,0,0,0,1.73,1.37,14.24,14.24,0,0,0,2.93,1,16.82,16.82,0,0,0,5.44.74,2.64,2.64,0,0,0,1.48-.46,3.12,3.12,0,0,0,.85-1.85l.39-1.81a2.64,2.64,0,0,1,.33-.94,2.61,2.61,0,0,1,.93-.74,7.87,7.87,0,0,0,3-2.26,7,7,0,0,0,.87-2.8.72.72,0,0,1,.2-.47c.22-.17.54,0,.78.13Z" fill="#37474f"/>
                  <path d="M385,433.59s-.56-7.1-5.74-9.1a2.77,2.77,0,0,0-2.9.31s4.84.82,6.23,9.16c0,0,.23.56,1.3.39C384.2,434.3,385,434.18,385,433.59Z" fill="#fafafa"/>
                  <path d="M371.85,425.24s0-.23,1.24-.43a2.16,2.16,0,0,1,1.43.19s3.86,1.78,4.41,9.2a1.33,1.33,0,0,1-1.23,1.11,1.08,1.08,0,0,1-1.38-.76S375.71,426.75,371.85,425.24Z" fill="#fafafa"/>
                  <path d="M367.66,425.29s.23-.44,1.15-.41c1.16,0,1.41.49,1.41.49s2.71,2.91,2.59,9.1c0,0,.09,1-1.37,1.12s-1.22-1.11-1.22-1.11S369.91,426.59,367.66,425.29Z" fill="#fafafa"/>
                </g>
              </g>
              <path d="M339.71,337.63c4.68,14.37,16.61,55.3,22.06,76.34,0,0-9.79,8.81-22.4,8L309,343.22l12.1-7.49Z" fill="#ceab8b"/>
            </g>
            <g>
              <path d="M239.67,534.34a2,2,0,0,0,2-2V405.71a2,2,0,0,0-3.94,0V532.37A2,2,0,0,0,239.67,534.34Z" fill="#455a64"/>
              <path d="M161.3,488.24a2,2,0,0,0,1.83-1.25L202,388.68a2,2,0,1,0-3.66-1.44l-38.84,98.3a2,2,0,0,0,1.11,2.56A2,2,0,0,0,161.3,488.24Z" fill="#455a64"/>
              <path d="M166,476.43a2,2,0,0,0,1.43-.62l72.27-76.47,72.14,76.15a2,2,0,0,0,2.86-2.71L241.1,395.11a2,2,0,0,0-1.43-.61h0a1.94,1.94,0,0,0-1.43.62l-73.7,78a2,2,0,0,0,1.43,3.32Z" fill="#455a64"/>
              <path d="M318,488.24a2.1,2.1,0,0,0,.73-.14,2,2,0,0,0,1.1-2.56L281,387.24a2,2,0,1,0-3.66,1.44L316.2,487A2,2,0,0,0,318,488.24Z" fill="#455a64"/>
              <path d="M319,362.27c1.42-7.94-5.06-14.14-17.23-22.36a285.73,285.73,0,0,0-35.29-19.82c-10.18-4.68-20.61-4.25-33.65,2.45-18.12,9.31-72.65,42.38-72.65,42.38s81.53,46,97.21,44,54.89-27.56,58-36.53S319,362.27,319,362.27Z" fill="#27debf"/>
              <path d="M319,362.27c1.42-7.94-5.06-14.14-17.23-22.36a285.73,285.73,0,0,0-35.29-19.82c-10.18-4.68-20.61-4.25-33.65,2.45-18.12,9.31-72.65,42.38-72.65,42.38s81.53,46,97.21,44,54.89-27.56,58-36.53S319,362.27,319,362.27Z" fill="#657c8f"/>
              <path d="M249.5,399.2c11.7,10.59,23.93,1.48,43.29-11.08C314.69,373.9,319,362.27,319,362.27s0,8.72-1.63,12.8-5.18,8.72-21,19.61S269.15,411,258.52,413l-8.38-1.16" fill="#27debf"/>
              <path d="M292.79,388.12C314.69,373.9,319,362.27,319,362.27s0,8.72-1.63,12.8-5.18,8.72-21,19.61S269.15,411,258.52,413l-8.38-1.16-.64-12.68C261.2,409.79,273.43,400.68,292.79,388.12Z" fill="#37474f"/>
              <path d="M164.36,472.81l-6,13.83a1.53,1.53,0,0,0-.07.36,2.17,2.17,0,0,0,0,.26,1.64,1.64,0,0,0,.76.92,3.58,3.58,0,0,0,3.25.15,1.31,1.31,0,0,0,.66-.63s0,0,0,0l0-.19,5.57-13Z" fill="#37474f"/>
              <path d="M315.35,473.39l5.14,13.55a1.41,1.41,0,0,1,.05.35v.25a1.63,1.63,0,0,1-.78.85,3.43,3.43,0,0,1-3.12,0,1.32,1.32,0,0,1-.61-.64v0l0-.19-4.76-12.7Z" fill="#37474f"/>
              <path d="M237.4,522.56v11.21a1.13,1.13,0,0,0,.66.93,3.56,3.56,0,0,0,3.21,0,1.13,1.13,0,0,0,.67-.93V522.56A4.81,4.81,0,0,0,237.4,522.56Z" fill="#37474f"/>
            </g>
            <g>
              <g>
                <path d="M192.81,314.78c4.65,5.41,46.9-6.75,58.09-8.27,18.06-2.46,32.75-4.26,38.88-2.33s8.73,5,10.61,12.38c2.21,8.66,3.36,13.07,3.36,13.07s-30,11.51-53.65,14.29S192.81,314.78,192.81,314.78Z" fill="#bc9a7e"/>
                <path d="M184.93,322.71c-4.68,17.84-8.89,38.6,1.95,50,7.3,7.65,44,27.53,67.63,19.7,23.31-7.71,71.57-43.55,76.42-47.15s9.25-6.07,8.78-7.6c-6.51-21.61-16-23.3-33.66-19.42-21.57,4.75-68.93,24.07-68.93,24.07Z" fill="#ceab8b"/>
              </g>
              <g>
                <polygon points="292.09 207.96 275.82 226.36 249.54 213.89 267.91 188.47 292.09 207.96" fill="#ffaa83"/>
                <g>
                  <path d="M312.28,173s6.66,9.62,6,10.6-5.43,1.95-5.43,1.95Z" fill="#ffaa83"/>
                  <circle cx="312.23" cy="171.4" r="7.24" fill="none" stroke="#263238" stroke-miterlimit="10" stroke-width="1.46"/>
                  <path d="M293.79,146.4c13.09,2.45,17,8.09,18.68,28.76,1.78,21.59-.27,28.44-3.05,31.42-1.87,2-12.52,2.61-17.93,1.25-6.77-1.7-22.1-6.75-29.47-17.46-8.67-12.61-11.27-29.9-2.46-37.22C272,142.85,288.46,145.4,293.79,146.4Z" fill="#ffaa83"/>
                  <path d="M292.09,208c5.64,1.28,14.2.51,16.75-1a19.41,19.41,0,0,1-9.48-.35,31.28,31.28,0,0,1-8.68-3.83Z" fill="#ffaa83"/>
                </g>
                <g>
                  <path d="M314.9,154.86l0,0c-3.66,2.52-8.11,3.57-12.5,4.25.35,3.51-.76,7-1.85,10.32-.75,2.32-3.48,9.6-6.44,5.61-2.14-2.89-4.09-5.52-8.19-4.81-6.76,1.17-7.47,9.83-3.08,15s8.33,3.05,8.33,3.05.62,9.32-4.29,15.9c0,0-7.33,4.51-17.62,1.12-6.5-2.14-15.87-10.33-19.32-16.72-9.51-17.59-9.56-34.44,2-39.63,1.07-8.43,7.6-12.35,15.1-14.25,10.4-2.64,21.2,3.88,31.25-.43,2.12-.9,4.07-2.19,6.24-3a4.23,4.23,0,0,1,3.74,0,4.48,4.48,0,0,1,1.6,2.86c.48,2,.66,4.24-.4,6a17.73,17.73,0,0,1,4.73-1.74,6,6,0,0,1,4.78,1.08,6.12,6.12,0,0,1,1.91,4.16C321.23,148.08,318.53,152.33,314.9,154.86Z" fill="#263238"/>
                  <path d="M251.73,151.77l-7.9-4.42a4.53,4.53,0,0,1,7.9,4.42Z" fill="#263238"/>
                </g>
                <line x1="294.07" y1="175.06" x2="319.38" y2="170.33" fill="none" stroke="#263238" stroke-miterlimit="10" stroke-width="1.24"/>
              </g>
              <path d="M347,218.71c-.68-1.14-2.19-1.36-3.45-1.8-2.33-.81-4.14-2.66-6.38-3.69a12.5,12.5,0,0,0-8.06-.54,19.7,19.7,0,0,0-2.7.86A34.48,34.48,0,0,0,321.6,216c-6.41,3.8-11.23,12.38-17.54,16.31-2.35,1.47-4.54,2.8-6.71,4.13l15.06,13.43a90.94,90.94,0,0,1,7.43-5.66c3.71-2.21,7.45-2.26,11.62-2.86A56.7,56.7,0,0,0,340,239.2a3.7,3.7,0,0,0,2.51-1.63c.53-1.19-.41-2.62-1.62-3.1s-3-.38-4.4-.6c-1.09-.18-4,.48-4.64-.62-.33-.58.08-1.29.5-1.8,2.61-3.26,5.92-6.75,10.1-7.73a8.76,8.76,0,0,0,3.67-1.46A2.92,2.92,0,0,0,347,218.71Z" fill="#ffaa83"/>
              <path d="M256.91,203.69c-16-8.73-30.56-3.12-35.81,8.1-4.75,10.16-14.73,49.47-14.73,49.47C211.16,270.25,256.91,203.69,256.91,203.69Z" fill="#57547f"/>
              <g>
                <path d="M254.51,206.85l2.4-3.16c-18.06-8.58-34.23,2.69-48.47,24.85C193.08,252.42,185,286.7,185,322.89c0,0,3.07,16.26,23.61,24.39,21.8,8.63,52.21,5,61.68-17.62,0,0,.19-22.57,7.06-33.68,4.44-7.19,14.8-23.17,22.5-34.63,6.71-10,11.92-32.69-2.09-41a115.94,115.94,0,0,0-11.4-5.82C273.57,218.75,252.87,211.91,254.51,206.85Z" fill="#27debf"/>
                <path d="M254.57,206.93l2.34-3.24c-18.06-8.58-34.23,2.69-48.47,24.85C193.08,252.42,185,286.7,185,322.89c0,0,3.07,16.26,23.61,24.39,21.8,8.63,52.21,5,61.68-17.62,0,0,.19-22.57,7.06-33.68,4.44-7.19,14.8-23.17,22.5-34.63,6.71-10,11.92-32.69-2.09-41a115.94,115.94,0,0,0-11.4-5.82C273.57,218.75,252.92,212,254.57,206.93Z" fill="#57547f"/>
                <path d="M305.63,246.88a36.32,36.32,0,0,0,.56-13.15h0a70.43,70.43,0,0,1-13.63,20.82c-7.35,7.74-16.43,13.77-23.25,22-7.22,8.7-12.41,19.22-18.46,28.72-2.43,3.81-5.74,11.16-10.25,11.46-5.5.36-10.75-6.34-13.75-11-4.78-7.37-8.89-16.58-14.83-23.05-5.2-5.65-13.23-12.89-20.31-9.61h0q-.79,2.82-1.5,5.7t-1.32,5.84c0,.08,0,.15,0,.23-.41,2-.79,3.94-1.13,5.91,0,.11,0,.21-.05.32q-.51,2.94-.91,5.89A192.75,192.75,0,0,0,185,322.89s3.07,16.26,23.61,24.39c21.8,8.63,52.21,5,61.68-17.62,0,0,.19-22.57,7.06-33.68.69-1.11,1.53-2.46,2.48-4v0c0-.08.1-.17.16-.25.78-1.24,1.64-2.58,2.55-4l.17-.26.07-.11c2-3.06,4.15-6.46,6.43-9.95l1-1.59c2.2-3.36,4.44-6.76,6.57-10l0,0,2.12-3.17.88-1.31h0c.24-.36.48-.74.71-1.13.08-.12.15-.24.22-.37q.25-.43.51-.9c.07-.13.14-.27.22-.4.18-.35.36-.7.54-1.07l.13-.27c.23-.48.46-1,.67-1.47l0,0,0-.09c.2-.45.38-.91.57-1.38,0-.11.08-.23.13-.34.16-.44.33-.89.49-1.35l0-.1.06-.15c.28-.85.55-1.71.79-2.59v0c.24-.88.46-1.78.66-2.68v0Z" fill="#46466c"/>
              </g>
              <g>
                <path d="M389.42,268.86a35.11,35.11,0,0,1-3.75,3.87c-5.52,5-12,7.41-19.48,12.28-6.07,3.94-15.42,9.68-23.31,14.59a118.38,118.38,0,0,1-25.37,11.73c-7.32,2.15-11.42,2.24-15.75-9.49-2.13-5.76-3.81-11.66-5.64-17.51q-4.1-13.06-8.05-26.17s-9.73-24,12.05-36.07c9.49,5.42,13.1,7.62,16.07,19,3.56,13.6,9.32,40.43,9.32,40.43A189.78,189.78,0,0,0,348,271.91c2.77-1.38,6.17-2.33,8.14-4.79a37.14,37.14,0,0,0,3.46-5.39c.93-1.68,1.6-3.5,2.62-5.1,1.9-3,4.64-5.46,7.16-7.88a3,3,0,0,1,1.74-1,2,2,0,0,1,1.75,1.07c.81,1.4.06,2.77-.35,4.2q-.71,2.44-1.4,4.9a42.86,42.86,0,0,0,13.9-13,6.44,6.44,0,0,1,1.09-1.39,2.11,2.11,0,0,1,1.62-.6c1.46.19,2.9,2.54,3,3.88s-.23,2.78.11,4.11,1.19,2.3,1.58,3.54a20.11,20.11,0,0,1,.83,3.92,13.45,13.45,0,0,1-2.21,8.22A20.51,20.51,0,0,1,389.42,268.86Z" fill="#ffaa83"/>
                <path d="M298.82,221.08c8.31,3.36,14.28,7.15,18.07,19.81s7.89,33,7.89,33,.08,4.25-10,10.19a24.78,24.78,0,0,1-19.51,2.63l-7.61-24.46S274.17,229.53,298.82,221.08Z" fill="#57547f"/>
              </g>
            </g>
            <g>
              <path d="M250.14,411.88c-6.66-.33-11.88-5.22-27.72-11.83-29.26-12.19-51.2-21.94-59.56-37.27s-14.28-59.56-12.19-78.71a24.92,24.92,0,0,1,1.43-6.35l-2.06-.31,5.33-4.53h0c5.47-4.47,14.37-.48,21.07,3.16,19.16,10.43,34.14,20.55,46,57.13,8.91,27.51,14.78,52.6,27.08,66" fill="#27debf"/>
              <path d="M152.1,277.72l-2.06-.31,5.33-4.53h0c5.47-4.47,14.37-.48,21.07,3.16,19.16,10.43,34.14,20.55,46,57.13,8.91,27.51,14.78,52.6,27.08,66l.65,12.68c-6.67-.33-11.89-5.22-27.73-11.83-29.26-12.19-51.2-21.94-59.56-37.27s-14.28-59.56-12.19-78.71A24.92,24.92,0,0,1,152.1,277.72Z" fill="#455a64"/>
              <path d="M170.89,280.76c19.16,10.43,34.13,20.56,46,57.13s18.32,68.88,41.65,75.15c0,0-10.55,4.2-42.88-9.48-10.29-4.35-22.78-12.29-31-16.89-16.07-9-25.81-16.41-27.35-19.18-8.5-15.25-14.28-59.56-12.19-78.71S161.3,275.54,170.89,280.76Z" fill="#657c8f"/>
            </g>
          </g>
          <g id="Speech_Bubble" data-name="Speech Bubble">
            <g>
              <path d="M278.55,118.56l-5.29-10,4.26-12.28V88.8l-13,7.53v7.52l5.6,9.7a.88.88,0,0,0,.38.34h0Z" fill="#27debf"/>
              <path d="M278.55,118.56l-5.29-10,4.26-12.28V88.8l-13,7.53v7.52l5.6,9.7a.88.88,0,0,0,.38.34h0Z" opacity="0.2"/>
              <path d="M309.66,29a8.63,8.63,0,0,0-3.9-6.76l-3.18-1.84a8.68,8.68,0,0,0-7.82,0L246,48.62a8.63,8.63,0,0,0-3.9,6.76v53.67a8.65,8.65,0,0,0,3.9,6.76l3.18,1.84a8.68,8.68,0,0,0,7.82,0l15.68-9.07,5.59,9.69a.84.84,0,0,0,1.51-.15l5.91-17.05,20.08-11.63a8.66,8.66,0,0,0,3.9-6.77Z" fill="#27debf"/>
              <path d="M242.09,109.05a8.65,8.65,0,0,0,3.9,6.76l3.18,1.84a8.76,8.76,0,0,0,7.15.31c-1.84.7-3.24-.34-3.24-2.57V61.73a8,8,0,0,1,1.14-3.85l-11-6.35a8,8,0,0,0-1.14,3.85Z" opacity="0.2"/>
              <path d="M309.53,27.9c-.45-1.66-2-2.18-3.77-1.15L257,55a7.81,7.81,0,0,0-2.75,2.91l-11-6.34A7.83,7.83,0,0,1,246,48.63l48.76-28.22a8.66,8.66,0,0,1,7.81,0l3.19,1.84A8.62,8.62,0,0,1,309.53,27.9Z" fill="#fff" opacity="0.5"/>
            </g>
            <g id="_" data-name="&lt;/&gt;">
              <path d="M260.25,82.8a2.82,2.82,0,0,1,.2-1.11,7,7,0,0,1,.57-1l10.6-17.14a1.28,1.28,0,0,1,.18-.2.47.47,0,0,1,.12-.09.29.29,0,0,1,.39,0,.67.67,0,0,1,.16.52v6.61a2.93,2.93,0,0,1-.3,1.38,10.31,10.31,0,0,1-.55.9L266.16,81l5.46,2.52a2.32,2.32,0,0,1,.55.25c.2.13.3.47.3,1v4.7a1.56,1.56,0,0,1-.16.7,1.07,1.07,0,0,1-.39.48l-.12,0a.28.28,0,0,1-.18,0L261,85.78a1.46,1.46,0,0,1-.57-.38,1.43,1.43,0,0,1-.2-.89Z" fill="#fff"/>
              <path d="M283.37,56.32a5.34,5.34,0,0,1,.39-1.07,2,2,0,0,1,.77-.83l3.55-2.05a.33.33,0,0,1,.42,0,.73.73,0,0,1,.17.53,1.68,1.68,0,0,1-.06.4l-9,38.19a4.79,4.79,0,0,1-.37,1,2,2,0,0,1-.79.87l-3.48,2a.29.29,0,0,1-.4,0,.68.68,0,0,1-.18-.53,1.68,1.68,0,0,1,.06-.4Z" fill="#fff"/>
              <path d="M302.85,62.5a2.82,2.82,0,0,1-.2,1.11,7,7,0,0,1-.57,1L291.48,81.8a1.28,1.28,0,0,1-.18.2l-.11.09a.31.31,0,0,1-.4,0,.67.67,0,0,1-.16-.52V74.94a2.79,2.79,0,0,1,.3-1.36c.21-.36.39-.66.55-.88l4.64-7.17-4.64-1.77a2.19,2.19,0,0,1-.55-.28c-.2-.14-.3-.48-.3-1V55.84a1.56,1.56,0,0,1,.16-.7,1,1,0,0,1,.4-.48l.11,0a.38.38,0,0,1,.18,0l10.6,4.89a1.47,1.47,0,0,1,.57.39,1.42,1.42,0,0,1,.2.88Z" fill="#fff"/>
            </g>
          </g>
          <g id="Text_Box" data-name="Text Box">
            <g id="_2" data-name="{}">
              <g id="Speech_Bubble-2" data-name="Speech Bubble">
                <g id="Speach_Bubble" data-name="Speach Bubble">
                  <g>
                    <path d="M161.27,22.3,96,59.89a3.6,3.6,0,0,0-1.62,2.81V99.13A3.51,3.51,0,0,0,96,101.91l6.45,3.67a3.62,3.62,0,0,0,3.24,0L171,68a3.58,3.58,0,0,0,1.62-2.81V28.73A3.54,3.54,0,0,0,171,25.94l-6.44-3.66A3.61,3.61,0,0,0,161.27,22.3Z" fill="#263238"/>
                    <path d="M172.57,28.44c-.13-.82-.79-1.11-1.6-.64L105.72,65.39a3.35,3.35,0,0,0-1.15,1.21L94.9,61A3.25,3.25,0,0,1,96,59.89L161.28,22.3a3.59,3.59,0,0,1,3.24,0L171,25.94A3.56,3.56,0,0,1,172.57,28.44Z" fill="#455a64"/>
                    <path d="M171,27.8,105.71,65.39a3.6,3.6,0,0,0-1.62,2.81v36.43c0,1,.73,1.45,1.62.93L171,68a3.58,3.58,0,0,0,1.62-2.81V28.73C172.59,27.7,171.87,27.28,171,27.8Z" fill="#37474f"/>
                  </g>
                </g>
              </g>
            </g>
            <g>
              <path d="M120.22,74.73q0,.43,0,1.17c0,.5,0,1,0,1.53s0,1,0,1.54,0,.88,0,1.15a7,7,0,0,0,.19,1.3,2,2,0,0,0,.46.93,1.13,1.13,0,0,0,.79.36,2.28,2.28,0,0,0,1.19-.38A4.83,4.83,0,0,0,124,81.4a5.43,5.43,0,0,0,.75-1.06,5,5,0,0,0,.45-1.08,8,8,0,0,0,.24-1,4.4,4.4,0,0,1,.23-.86,1.06,1.06,0,0,1,.48-.48l2.73-1.58a.25.25,0,0,1,.32,0,.57.57,0,0,1,.14.42,13.1,13.1,0,0,1-.52,3.38,15.88,15.88,0,0,1-3.43,6.17,10.79,10.79,0,0,1-2.55,2.1,5.48,5.48,0,0,1-2.68.86,3.05,3.05,0,0,1-2-.72,4.34,4.34,0,0,1-1.28-2,10.62,10.62,0,0,1-.51-3c0-.86-.05-1.8-.05-2.8s0-2,.05-2.91a16.1,16.1,0,0,1,.5-3.65,16.91,16.91,0,0,1,1.28-3.51,14.57,14.57,0,0,1,2-3,10.4,10.4,0,0,1,2.69-2.24,5.69,5.69,0,0,1,2.55-.85,3.48,3.48,0,0,1,2,.5,3.75,3.75,0,0,1,1.38,1.71,7.41,7.41,0,0,1,.52,2.78,1.33,1.33,0,0,1-.14.57.84.84,0,0,1-.32.4L126.16,71c-.24.14-.4.16-.48.07a1.43,1.43,0,0,1-.23-.59,3.55,3.55,0,0,0-.24-.69,1.2,1.2,0,0,0-.45-.56,1.23,1.23,0,0,0-.75-.19,2.53,2.53,0,0,0-1.16.41,4.49,4.49,0,0,0-1.19,1,5.46,5.46,0,0,0-.79,1.28,6.12,6.12,0,0,0-.46,1.45A11.27,11.27,0,0,0,120.22,74.73Z" fill="#f0f0f0"/>
              <path d="M138,55.64a5.37,5.37,0,0,1,2.45-.82,3.51,3.51,0,0,1,1.93.41,3.23,3.23,0,0,1,1.27,1.32,4,4,0,0,1,.48,1.87,1.41,1.41,0,0,1-.14.58.81.81,0,0,1-.3.38L140.91,61a.84.84,0,0,1-.47.14.87.87,0,0,1-.36-.18l-.2-.2a1.09,1.09,0,0,0-.38-.25,1.39,1.39,0,0,0-.63,0,2.38,2.38,0,0,0-.92.35,7.32,7.32,0,0,0-.76.52,3.82,3.82,0,0,0-.64.63,3.08,3.08,0,0,0-.46.76,2.31,2.31,0,0,0-.18.91,1,1,0,0,0,.2.68.88.88,0,0,0,.67.21A5.82,5.82,0,0,0,138,64.3l1.91-.5a6.38,6.38,0,0,1,2-.26,2.43,2.43,0,0,1,1.43.54,3,3,0,0,1,.86,1.43A9.12,9.12,0,0,1,144.5,68a10.79,10.79,0,0,1-.48,3.2,13.32,13.32,0,0,1-6,7.52,6.36,6.36,0,0,1-2.59.91,3.55,3.55,0,0,1-2-.36,3.24,3.24,0,0,1-1.32-1.37,4.61,4.61,0,0,1-.5-2.12,1.2,1.2,0,0,1,.14-.57.85.85,0,0,1,.3-.39l2.73-1.57a.79.79,0,0,1,.46-.16.61.61,0,0,1,.33.15c.05,0,.14.14.25.27a1.35,1.35,0,0,0,1.15.46,2.62,2.62,0,0,0,1.06-.39,7.76,7.76,0,0,0,1.84-1.43,2.5,2.5,0,0,0,.74-1.76.69.69,0,0,0-.27-.64,1.43,1.43,0,0,0-.81-.13,8.48,8.48,0,0,0-1.39.27c-.56.16-1.22.33-2,.51-1.43.35-2.47.17-3.13-.55s-1-2-1-3.84a10.83,10.83,0,0,1,.4-2.86,13.39,13.39,0,0,1,3-5.5A10.2,10.2,0,0,1,138,55.64Z" fill="#f0f0f0"/>
              <path d="M153,46.93a5.37,5.37,0,0,1,2.45-.82,3.44,3.44,0,0,1,1.93.41,3.3,3.3,0,0,1,1.27,1.32,4.22,4.22,0,0,1,.48,1.87,1.41,1.41,0,0,1-.14.58.87.87,0,0,1-.3.38L156,52.24a.79.79,0,0,1-.47.15.76.76,0,0,1-.36-.18L155,52a1.05,1.05,0,0,0-.39-.25,1.34,1.34,0,0,0-.62,0,2.32,2.32,0,0,0-.92.35,6.39,6.39,0,0,0-.76.52,4.31,4.31,0,0,0-.65.63,2.88,2.88,0,0,0-.45.76,2.27,2.27,0,0,0-.18.91,1,1,0,0,0,.2.68.87.87,0,0,0,.66.21,5.65,5.65,0,0,0,1.24-.18l1.92-.5a6.35,6.35,0,0,1,2-.26,2.43,2.43,0,0,1,1.43.54,2.88,2.88,0,0,1,.85,1.43,8.73,8.73,0,0,1,.28,2.45,10.79,10.79,0,0,1-.48,3.2,12.37,12.37,0,0,1-1.34,3,13.8,13.8,0,0,1-2,2.58,13.11,13.11,0,0,1-2.57,2,6.36,6.36,0,0,1-2.59.91,3.6,3.6,0,0,1-2-.36,3.24,3.24,0,0,1-1.32-1.37,4.61,4.61,0,0,1-.5-2.12,1.39,1.39,0,0,1,.13-.58.87.87,0,0,1,.3-.38l2.73-1.57a.83.83,0,0,1,.46-.16.67.67,0,0,1,.34.15c.05.05.14.14.25.27a1.56,1.56,0,0,0,.44.34,1.53,1.53,0,0,0,.71.12,2.62,2.62,0,0,0,1.06-.39A7.76,7.76,0,0,0,155,63.4a2.55,2.55,0,0,0,.74-1.76.68.68,0,0,0-.27-.64,1.37,1.37,0,0,0-.82-.13,8.21,8.21,0,0,0-1.38.27c-.56.16-1.23.32-2,.51-1.43.35-2.48.17-3.14-.55s-1-2-1-3.84a10.85,10.85,0,0,1,.41-2.86,13.52,13.52,0,0,1,3-5.5A10.45,10.45,0,0,1,153,46.93Z" fill="#f0f0f0"/>
            </g>
          </g>
          <g id="Text_Box-2" data-name="Text Box">
            <g id="_3" data-name="{}">
              <g id="Speech_Bubble-3" data-name="Speech Bubble">
                <g id="Speach_Bubble-2" data-name="Speach Bubble">
                  <g>
                    <path d="M161.27,98,96,135.6a3.58,3.58,0,0,0-1.62,2.8v36.43A3.54,3.54,0,0,0,96,177.62l6.45,3.66a3.59,3.59,0,0,0,3.24,0L171,143.67a3.57,3.57,0,0,0,1.62-2.8V104.44a3.54,3.54,0,0,0-1.63-2.79L164.52,98A3.64,3.64,0,0,0,161.27,98Z" fill="#263238"/>
                    <path d="M172.57,104.14c-.13-.81-.79-1.1-1.6-.64l-65.25,37.6a3.27,3.27,0,0,0-1.15,1.21l-9.67-5.56A3.1,3.1,0,0,1,96,135.6L161.28,98a3.62,3.62,0,0,1,3.24,0l6.44,3.67A3.54,3.54,0,0,1,172.57,104.14Z" fill="#455a64"/>
                    <path d="M171,103.5l-65.26,37.6a3.58,3.58,0,0,0-1.62,2.8v36.43c0,1,.73,1.45,1.62.93L171,143.67a3.57,3.57,0,0,0,1.62-2.8V104.44C172.59,103.41,171.87,103,171,103.5Z" fill="#37474f"/>
                  </g>
                </g>
              </g>
            </g>
            <g>
              <path d="M120.53,141.72a.3.3,0,0,1,.4,0,.7.7,0,0,1,.17.51V163a1.64,1.64,0,0,1-.17.7,1,1,0,0,1-.4.49l-2.73,1.57a.3.3,0,0,1-.39,0,.71.71,0,0,1-.17-.52v-7.86L112.61,160v7.86a1.66,1.66,0,0,1-.16.71,1.07,1.07,0,0,1-.4.49l-2.73,1.57a.3.3,0,0,1-.39,0,.65.65,0,0,1-.17-.53V149.38a1.5,1.5,0,0,1,.17-.7,1.06,1.06,0,0,1,.39-.49l2.73-1.57a.3.3,0,0,1,.4,0,.66.66,0,0,1,.16.51v7.73l4.63-2.67v-7.73a1.68,1.68,0,0,1,.17-.71,1,1,0,0,1,.39-.48Z" fill="#f0f0f0"/>
              <path d="M135.77,132.93a.3.3,0,0,1,.39,0,.71.71,0,0,1,.17.52v3.4a1.64,1.64,0,0,1-.17.7,1.06,1.06,0,0,1-.39.49l-3.67,2.12v16.46a1.64,1.64,0,0,1-.17.7,1.06,1.06,0,0,1-.39.49l-2.73,1.57a.3.3,0,0,1-.4,0,.66.66,0,0,1-.17-.51V142.4l-3.66,2.12a.3.3,0,0,1-.4,0A.7.7,0,0,1,124,144v-3.4a1.68,1.68,0,0,1,.17-.71,1,1,0,0,1,.4-.48Z" fill="#f0f0f0"/>
              <path d="M145.34,144.19a1.35,1.35,0,0,1-.28-.36l-2-4.17v10.62a1.68,1.68,0,0,1-.17.71,1,1,0,0,1-.39.48l-2.73,1.58a.3.3,0,0,1-.4,0,.68.68,0,0,1-.17-.51V131.78a1.64,1.64,0,0,1,.17-.7,1,1,0,0,1,.4-.49l2.41-1.39c.28-.16.49-.17.63,0a1.49,1.49,0,0,1,.27.36l3.38,6.93,3.37-10.83c0-.13.14-.36.27-.67a1.49,1.49,0,0,1,.63-.72l2.42-1.39a.29.29,0,0,1,.39,0,.68.68,0,0,1,.17.51v20.73a1.64,1.64,0,0,1-.17.7,1.06,1.06,0,0,1-.39.49l-2.73,1.57a.3.3,0,0,1-.4,0,.66.66,0,0,1-.17-.51V135.74l-2,6.43a4.55,4.55,0,0,1-.28.69,1.15,1.15,0,0,1-.49.55l-1.33.77C145.62,144.3,145.46,144.31,145.34,144.19Z" fill="#f0f0f0"/>
              <path d="M167.92,131.69a.3.3,0,0,1,.39,0,.67.67,0,0,1,.17.52v3.4a1.54,1.54,0,0,1-.17.71,1.08,1.08,0,0,1-.39.48l-9.65,5.57a.3.3,0,0,1-.4,0,.66.66,0,0,1-.16-.51V121.12a1.62,1.62,0,0,1,.16-.7,1.14,1.14,0,0,1,.4-.49l2.73-1.57a.31.31,0,0,1,.4,0,.7.7,0,0,1,.16.52v16.46Z" fill="#f0f0f0"/>
            </g>
          </g>
          <path id="Shadow-3" data-name="Shadow" d="M526.68,469.41c8.08,4.72,8.08,12.37,0,17.09s-21.2,4.72-29.28,0-8.09-12.37,0-17.09S518.59,464.69,526.68,469.41Z" fill="#e0e0e0"/>
          <g id="Pot">
            <g id="Pot-2" data-name="Pot">
              <path d="M498.69,480.2c-7.14-7.37-11.33-37.36-4.37-43.2h35.44c7,5.84,2.77,35.82-4.37,43.19l-.19.2-.25.24c-.2.2-.41.39-.64.58l-.18.14c-.17.14-.34.28-.53.41s-.62.42-.93.6c-5.87,3.43-15.39,3.43-21.27,0h0q-.47-.27-.93-.6l-.5-.39-.21-.16c-.22-.19-.43-.37-.62-.56l-.29-.28Z" fill="#455a64"/>
              <path d="M526.68,434.65c8.08,4.72,8.08,12.37,0,17.09s-21.2,4.72-29.28,0-8.09-12.37,0-17.09S518.59,429.93,526.68,434.65Z" fill="#455a64"/>
              <g opacity="0.1">
                <path d="M526.68,434.65c8.08,4.72,8.08,12.37,0,17.09s-21.2,4.72-29.28,0-8.09-12.37,0-17.09S518.59,429.93,526.68,434.65Z" fill="#fff"/>
              </g>
              <path d="M522.79,436.92c5.94,3.46,5.94,9.08,0,12.55s-15.56,3.47-21.5,0-5.94-9.09,0-12.55S516.85,433.45,522.79,436.92Z" fill="#263238"/>
              <path d="M501.29,442.87c5.94-3.46,15.56-3.46,21.5,0a10.06,10.06,0,0,1,3.56,3.3,9.89,9.89,0,0,1-3.56,3.3c-5.94,3.47-15.56,3.47-21.5,0a9.81,9.81,0,0,1-3.56-3.3A10,10,0,0,1,501.29,442.87Z" fill="#f5f5f5"/>
            </g>
            <g>
              <path d="M531.68,378.83l-7.81,6.94,7-2.32a31,31,0,0,1-2.82,11.84l-8.67,4.65,7-1.07A13.07,13.07,0,0,1,526,405c-.08.28-.16.56-.25.84-.63,1.88-1.52,5.45-3,9.67,0,0,0,0,0,0a61.94,61.94,0,0,1-4.87,10.65,43.34,43.34,0,0,1-3.24,4.79l-.22.29c-2.19-1.46-4.46-2.89-6.83-4.29-1.36-3.47-2.86-11.93-3.13-18.78-1-26.25,19.71-39.78,35.9-43.67A47.28,47.28,0,0,0,531.68,378.83Z" fill="#17a58a"/>
              <path d="M520.38,379.13a19.65,19.65,0,0,0-3.68,4.44,39,39,0,0,0-2.59,5.17,53.11,53.11,0,0,0-3.18,11.1,48.87,48.87,0,0,0,1.25,22.81h0a.39.39,0,0,1-.25.48.38.38,0,0,1-.47-.25h0a49.51,49.51,0,0,1-.9-23.11,52.89,52.89,0,0,1,3.37-11.1,39.34,39.34,0,0,1,2.69-5.15A19.52,19.52,0,0,1,520.38,379.13Z" fill="#fafafa"/>
            </g>
            <g>
              <path d="M468.91,392.47l0,0a202.48,202.48,0,0,1,13.44,20.18l8.25,2.48-4.79,1.58,5.15,8.72,9.15,2.82L493.78,430s2.6,10.32,10,14.82c4.07,2.48,6.09,2.9,7.37,1.75.89-.8,1.24-5.7,2.1-10.06s1.14-11.48-2.73-20.2a26.83,26.83,0,0,0-4.1-6.44C496.79,398.53,478.19,392.62,468.91,392.47Z" fill="#27debf"/>
              <path d="M468.91,392.47l0,0a202.48,202.48,0,0,1,13.44,20.18l8.25,2.48-4.79,1.58,5.15,8.72,9.15,2.82L493.78,430s2.6,10.32,10,14.82c4.07,2.48,6.09,2.9,7.37,1.75.89-.8,1.24-5.7,2.1-10.06s1.14-11.48-2.73-20.2a26.83,26.83,0,0,0-4.1-6.44C496.79,398.53,478.19,392.62,468.91,392.47Z" fill="#16b798"/>
              <path d="M507.62,420.82h0v0a40.89,40.89,0,0,1,2.78,11.38h0a124.57,124.57,0,0,1-.07,14.8,2.2,2.2,0,0,0,.77-.44c.89-.8,1.24-5.7,2.1-10.06s1.14-11.48-2.73-20.2a26.83,26.83,0,0,0-4.1-6.44c-9.59-11.37-28.2-17.28-37.48-17.43,14.17,2.77,29.2,12.72,36.43,24A29.41,29.41,0,0,1,507.62,420.82Z" opacity="0.1"/>
              <path d="M483.05,397.37a55.8,55.8,0,0,1,18.57,13.69,37.34,37.34,0,0,1,6.21,9.85,35.44,35.44,0,0,1,2.62,11.31s0,0,0,0,0,0,0,0a45.44,45.44,0,0,0-3.24-11,42.75,42.75,0,0,0-6-9.76,49.22,49.22,0,0,0-8.34-7.91,64.79,64.79,0,0,0-9.81-6.1,0,0,0,0,1,0-.05S483,397.37,483.05,397.37Z" fill="#fafafa"/>
            </g>
            <g>
              <path d="M553.54,402.15h0a27.71,27.71,0,0,0-3.44,0,54.19,54.19,0,0,0-13.29,2.47c-1.6.49-3.21,1.07-4.8,1.72-.79.33-1.58.67-2.36,1a38,38,0,0,0-10.47,7,24.07,24.07,0,0,0-3.73,4.67c-.13.22-.28.44-.4.66h0c-.32.58-.62,1.15-.9,1.72a32.78,32.78,0,0,0-3.85,16c-.08,3.92,1,8.46,1.73,9.24a1.64,1.64,0,0,0,.32.27c1.08.77,2.87.46,6.29-1.21,6.85-3.35,10-12.62,10-12.62l-4.33-1.6,7.17-2.18,5.23-7.25L532.06,421l8-2.18a176.72,176.72,0,0,1,13.47-16.62l0,0Z" fill="#27debf"/>
              <path d="M550.1,402.12a54.19,54.19,0,0,0-13.29,2.47c-1.6.49-3.21,1.07-4.8,1.72-.79.33-1.58.67-2.36,1a38,38,0,0,0-10.47,7,24.07,24.07,0,0,0-3.73,4.67c-.13.22-.28.44-.4.66h0c-.32.58-.62,1.15-.9,1.72a32.78,32.78,0,0,0-3.85,16c-.08,3.92,1,8.46,1.73,9.24a1.64,1.64,0,0,0,.32.27,1.94,1.94,0,0,0,.72.31c-.48-6.11,3.35-21.32,8.22-27.39,5.06-6.32,16.73-15.25,32.24-17.69v0A27.25,27.25,0,0,0,550.1,402.12Z" opacity="0.05"/>
              <path d="M513,447.25a52.37,52.37,0,0,1,1.61-13.36,43.62,43.62,0,0,1,5.16-12.47,29.85,29.85,0,0,1,4.35-5.22,43.28,43.28,0,0,1,5.21-4.34,50.32,50.32,0,0,1,11.94-6.29.05.05,0,0,1,.05,0s0,0,0,0a66.42,66.42,0,0,0-11.53,6.83,56.63,56.63,0,0,0-5.13,4.27,30.15,30.15,0,0,0-4.37,5A42.82,42.82,0,0,0,515,434a51.75,51.75,0,0,0-1.9,13.27,0,0,0,1,1-.08,0Z" fill="#fafafa"/>
            </g>
          </g>
        </g>
      </g>
    </g>
  </g>
</svg>
